<?xml version="1.0" standalone="no"?>
<!DOCTYPE svg PUBLIC "-//W3C//DTD SVG 1.1//EN" "http://www.w3.org/Graphics/SVG/1.1/DTD/svg11.dtd" >
<svg xmlns="http://www.w3.org/2000/svg" xmlns:xlink="http://www.w3.org/1999/xlink" version="1.1">
<metadata>
Created by FontForge 20190801 at Sat Apr 17 17:58:21 2004
 By Jimmy Wärting
[c] Copyright 1997, 1999, 2000, The Font Bureau, Inc. Designed by Tobias Frere-Jones. All Rights Reserved.
</metadata>
<defs>
<font id="GriffithGothicRegular" horiz-adv-x="500" >
  <font-face 
    font-family="GriffithGothic Regular"
    font-weight="400"
    font-stretch="normal"
    units-per-em="1000"
    panose-1="2 0 6 3 5 0 0 2 0 4"
    ascent="800"
    descent="-200"
    x-height="517"
    cap-height="720"
    bbox="-67 -192 1214 951"
    underline-thickness="20"
    underline-position="-133"
    unicode-range="U+0020-FB02"
  />
<missing-glyph 
 />
    <glyph glyph-name=".notdef" 
 />
    <glyph glyph-name="NUL" horiz-adv-x="0" 
 />
    <glyph glyph-name="nonmarkingreturn" horiz-adv-x="253" 
 />
    <glyph glyph-name="space" unicode=" " horiz-adv-x="253" 
 />
    <glyph glyph-name="Lslash" unicode="&#x141;" horiz-adv-x="551" 
d="M114 0v317l-88 -40v77l88 40v326h92v-288l143 66v-78l-143 -66v-277h327v-77h-419z" />
    <glyph glyph-name="lslash" unicode="&#x142;" horiz-adv-x="306" 
d="M195 352v-352h-85v318l-84 -39v73l84 38v347l85 23v-335l85 39v-74z" />
    <glyph glyph-name="Scaron" unicode="&#x160;" horiz-adv-x="573" 
d="M529 189q0 -50 -18.5 -87t-50 -62.5t-75 -38t-92.5 -12.5q-97 0 -159 39t-96 117l65 48q29 -68 77.5 -100.5t114.5 -32.5q64 0 106 31t42 89q0 26 -7.5 47t-26.5 38.5t-52.5 33t-84.5 31.5q-59 18 -99.5 39t-65.5 47t-36 57.5t-11 72.5q0 39 15 73t43.5 59t68 39t89.5 14
q163 0 228 -132l-64 -49q-29 52 -67.5 81t-97.5 29q-32 0 -56 -8.5t-40 -23t-24 -33.5t-8 -40q0 -25 7.5 -45t26.5 -36.5t51 -31.5t80 -31q62 -20 104 -41.5t67 -48t35.5 -59t10.5 -73.5zM310 781h-72l-122 160h48l111 -99l111 99h46z" />
    <glyph glyph-name="scaron" unicode="&#x161;" horiz-adv-x="418" 
d="M389 139q0 -36 -14 -64t-38 -46.5t-56 -28t-69 -9.5q-63 0 -108 19.5t-78 48.5l40 50q32 -29 68.5 -44.5t78.5 -15.5t70.5 20.5t28.5 59.5q0 19 -5 32.5t-18 25t-36 22t-58 22.5q-82 28 -117.5 65.5t-35.5 92.5q0 31 12 56.5t33.5 44t51.5 29t66 10.5q52 0 90.5 -14.5
t76.5 -43.5l-41 -52q-33 27 -62.5 40t-64.5 13q-42 0 -63.5 -22t-21.5 -51q0 -33 25.5 -53t86.5 -41q44 -15 74.5 -31.5t49 -36.5t26.5 -44t8 -54zM242 592h-72l-122 160h48l111 -99l111 99h46z" />
    <glyph glyph-name="Yacute" unicode="&#xdd;" horiz-adv-x="623" 
d="M358 280v-280h-94v278l-249 442h101l199 -361l199 361h94zM322 764h-58l88 151h110z" />
    <glyph glyph-name="yacute" unicode="&#xfd;" horiz-adv-x="480" 
d="M269 -60q-12 -38 -27.5 -63t-34.5 -40.5t-42.5 -22t-52.5 -6.5q-28 0 -48 5t-39 13v64h23q10 -16 23 -24t36 -8q28 0 46.5 18t32.5 54l16 47l-179 544h90l129 -439l130 439h85zM255 583h-58l88 151h110z" />
    <glyph glyph-name="Thorn" unicode="&#xde;" horiz-adv-x="576" 
d="M541 373q0 -105 -64 -159.5t-184 -54.5h-122v-159h-93v720h93v-139h128q114 0 178 -52.5t64 -155.5zM448 371q0 69 -40 105t-118 36h-122v-283h125q75 0 115 35.5t40 106.5z" />
    <glyph glyph-name="thorn" unicode="&#xfe;" horiz-adv-x="522" 
d="M482 256q0 -65 -14 -114t-37.5 -83t-54.5 -51t-66 -17q-53 0 -88.5 31t-63.5 85h-6v-295h-87v925l87 23v-348h6q30 54 65 86t89 32q37 0 68 -17t53.5 -50t35.5 -82t13 -114v-11v0zM396 259q0 57 -9.5 97t-25.5 65.5t-37.5 37t-44.5 11.5q-27 0 -51 -16.5t-41 -45
t-27 -66.5t-10 -82t10 -82t27 -66t41 -44.5t52 -16.5q24 0 45 12t36.5 37.5t25 65t9.5 93.5z" />
    <glyph glyph-name="Zcaron" unicode="&#x17d;" horiz-adv-x="552" 
d="M34 0v64l377 583h-358v73h464v-64l-376 -583h376v-73h-483zM313 771h-72l-122 160h48l111 -99l111 99h46z" />
    <glyph glyph-name="zcaron" unicode="&#x17e;" horiz-adv-x="428" 
d="M29 0v54l270 402h-255v61h354v-53l-270 -403h270v-61h-369zM257 592h-72l-122 160h48l111 -99l111 99h46z" />
    <glyph glyph-name="onehalf" unicode="&#xbd;" 
d="M436 100l-169 84l27 -184h-88l27 184l-169 -84l-29 82l185 33l-138 142v6l138 142l-185 33l29 82l169 -84l-27 184h88l-27 -184l169 84l29 -82l-185 -33l138 -142v-6l-138 -142l185 -33zM250 493l-84 -133l84 -133l84 133z" />
    <glyph glyph-name="onequarter" unicode="&#xbc;" 
d="M436 100l-169 84l27 -184h-88l27 184l-169 -84l-29 82l185 33l-138 142v6l138 142l-185 33l29 82l169 -84l-27 184h88l-27 -184l169 84l29 -82l-185 -33l138 -142v-6l-138 -142l185 -33zM250 493l-84 -133l84 -133l84 133z" />
    <glyph glyph-name="onesuperior" unicode="&#xb9;" 
d="M436 100l-169 84l27 -184h-88l27 184l-169 -84l-29 82l185 33l-138 142v6l138 142l-185 33l29 82l169 -84l-27 184h88l-27 -184l169 84l29 -82l-185 -33l138 -142v-6l-138 -142l185 -33zM250 493l-84 -133l84 -133l84 133z" />
    <glyph glyph-name="threequarters" unicode="&#xbe;" 
d="M436 100l-169 84l27 -184h-88l27 184l-169 -84l-29 82l185 33l-138 142v6l138 142l-185 33l29 82l169 -84l-27 184h88l-27 -184l169 84l29 -82l-185 -33l138 -142v-6l-138 -142l185 -33zM250 493l-84 -133l84 -133l84 133z" />
    <glyph glyph-name="threesuperior" unicode="&#xb3;" 
d="M436 100l-169 84l27 -184h-88l27 184l-169 -84l-29 82l185 33l-138 142v6l138 142l-185 33l29 82l169 -84l-27 184h88l-27 -184l169 84l29 -82l-185 -33l138 -142v-6l-138 -142l185 -33zM250 493l-84 -133l84 -133l84 133z" />
    <glyph glyph-name="twosuperior" unicode="&#xb2;" 
d="M436 100l-169 84l27 -184h-88l27 184l-169 -84l-29 82l185 33l-138 142v6l138 142l-185 33l29 82l169 -84l-27 184h88l-27 -184l169 84l29 -82l-185 -33l138 -142v-6l-138 -142l185 -33zM250 493l-84 -133l84 -133l84 133z" />
    <glyph glyph-name="brokenbar" unicode="&#xa6;" 
d="M436 100l-169 84l27 -184h-88l27 184l-169 -84l-29 82l185 33l-138 142v6l138 142l-185 33l29 82l169 -84l-27 184h88l-27 -184l169 84l29 -82l-185 -33l138 -142v-6l-138 -142l185 -33zM250 493l-84 -133l84 -133l84 133z" />
    <glyph glyph-name="minus" unicode="&#x2212;" 
d="M436 100l-169 84l27 -184h-88l27 184l-169 -84l-29 82l185 33l-138 142v6l138 142l-185 33l29 82l169 -84l-27 184h88l-27 -184l169 84l29 -82l-185 -33l138 -142v-6l-138 -142l185 -33zM250 493l-84 -133l84 -133l84 133z" />
    <glyph glyph-name="multiply" unicode="&#xd7;" 
d="M436 100l-169 84l27 -184h-88l27 184l-169 -84l-29 82l185 33l-138 142v6l138 142l-185 33l29 82l169 -84l-27 184h88l-27 -184l169 84l29 -82l-185 -33l138 -142v-6l-138 -142l185 -33zM250 493l-84 -133l84 -133l84 133z" />
    <glyph glyph-name="eth" unicode="&#xf0;" horiz-adv-x="503" 
d="M461 270q0 -65 -14.5 -117t-41.5 -88t-66 -55.5t-88 -19.5t-88.5 19t-67 53.5t-42 83.5t-14.5 108v11q0 59 13.5 107.5t39 83t61 53.5t80.5 19q53 0 88 -31.5t58 -79.5h6q-8 67 -36.5 124.5t-67.5 106.5l-116 -62v45l87 47q-31 34 -64 60l72 24q14 -13 27.5 -27t26.5 -29
l109 56v-45l-81 -44q25 -32 47 -70.5t38 -85.5t25 -103t9 -124v-20v0zM375 265q0 98 -32 153t-92 55q-61 0 -93 -54.5t-32 -151.5v-12q0 -97 32 -152.5t93 -55.5q60 0 92 55t32 152v11z" />
    <glyph glyph-name="exclam" unicode="!" horiz-adv-x="252" 
d="M150 214h-48l-30 506h108zM183 50q0 -24 -16 -40.5t-41 -16.5t-41.5 16.5t-16.5 40.5q0 25 16.5 41t41.5 16t41 -16t16 -41z" />
    <glyph glyph-name="quotedbl" unicode="&#x22;" horiz-adv-x="360" 
d="M286 489h-48l-23 231h94zM123 489h-49l-23 231h94z" />
    <glyph glyph-name="numbersign" unicode="#" horiz-adv-x="620" 
d="M470 458l-33 -196h121v-71h-133l-32 -191h-54l32 191h-179l-32 -191h-54l32 191h-110v71h122l33 196h-121v71h133l32 191h54l-31 -191h178l32 191h54l-32 -191h110v-71h-122zM237 459l-33 -198h179l34 198h-180z" />
    <glyph glyph-name="dollar" unicode="$" horiz-adv-x="557" 
d="M522 192q0 -44 -16.5 -78t-45 -58.5t-68 -38.5t-84.5 -17v-95h-56v96q-135 9 -222 99l49 56q40 -41 82 -63.5t95 -27.5v277q-105 33 -154.5 78t-49.5 122q0 39 14.5 70.5t41 55t63.5 37t81 15.5v42h56v-43q58 -5 103 -25.5t87 -60.5l-49 -56q-33 33 -67 52.5t-78 25.5
v-252q61 -20 102.5 -40.5t67 -45.5t37 -55.5t11.5 -69.5zM256 656q-61 -2 -92.5 -31.5t-31.5 -77.5q0 -46 29.5 -75.5t94.5 -53.5v238zM442 187q0 24 -6.5 43.5t-22.5 36t-42.5 31t-66.5 29.5v-264q65 5 101.5 36t36.5 88z" />
    <glyph glyph-name="percent" unicode="%" horiz-adv-x="854" 
d="M369 530q0 -45 -13 -81.5t-36 -62t-54 -39.5t-67 -14t-66.5 13.5t-53 39t-35 62t-12.5 82.5q0 45 13 81.5t35.5 62t53.5 39.5t67 14t66.5 -13.5t53 -39t35.5 -62t13 -82.5zM450 350l-203 -350h-80l238 370l203 350h79zM823 190q0 -45 -13 -81.5t-35.5 -62t-53.5 -39.5
t-67 -14t-67 13.5t-53.5 39t-35 62t-12.5 82.5q0 45 13 81.5t35.5 62t54 39.5t67.5 14t66.5 -13.5t53 -39t35 -62t12.5 -82.5zM297 529q0 64 -25 102.5t-72 38.5q-46 0 -71.5 -37.5t-25.5 -101.5q0 -65 25.5 -103t71.5 -38t71.5 37t25.5 102zM752 189q0 65 -25.5 103
t-71.5 38q-47 0 -72.5 -37t-25.5 -102q0 -64 25.5 -102.5t72.5 -38.5q45 0 71 37.5t26 101.5z" />
    <glyph glyph-name="ampersand" unicode="&#x26;" horiz-adv-x="683" 
d="M683 2q-16 -4 -29.5 -6t-32.5 -2q-23 0 -43 3.5t-39.5 12.5t-39.5 24.5t-43 39.5q-44 -41 -94 -62.5t-106 -21.5q-51 0 -92.5 14.5t-71 41.5t-46 64.5t-16.5 83.5q0 33 8.5 63t28 57t51.5 52t80 50q-29 45 -44.5 84.5t-15.5 79.5q0 33 12 61t33.5 48t51.5 31.5t66 11.5
q35 0 62 -12t45.5 -31.5t28 -46t9.5 -54.5q0 -58 -38 -102t-107 -82q50 -74 88.5 -126t75.5 -97q32 44 58 98.5t46 117.5l68 -30q-25 -71 -57 -130.5t-70 -107.5q38 -42 64 -55.5t51 -13.5q20 0 32 2t26 7v-67v0zM371 586q0 38 -18.5 64t-53.5 26q-43 0 -63.5 -27t-20.5 -65
q0 -32 12.5 -64.5t37.5 -70.5q58 32 82 65t24 72zM412 123q-36 44 -81 103t-99 140q-63 -35 -89 -74.5t-26 -87.5q0 -32 10.5 -59t30 -47t47 -31.5t60.5 -11.5q41 0 77.5 18t69.5 50z" />
    <glyph glyph-name="quotesingle" unicode="'" horiz-adv-x="198" 
d="M124 489h-50l-23 231h96z" />
    <glyph glyph-name="parenleft" unicode="(" horiz-adv-x="329" 
d="M224 -95q-34 36 -65 79.5t-54.5 95t-37.5 111.5t-14 129t14 129t37.5 111.5t54.5 95t65 79.5h77q-75 -90 -115 -190.5t-40 -224.5t40 -224.5t115 -190.5h-77z" />
    <glyph glyph-name="parenright" unicode=")" horiz-adv-x="329" 
d="M276 320q0 -69 -14 -129t-38 -111.5t-55 -95t-65 -79.5h-77q75 90 115 190.5t40 224.5t-40 224.5t-115 190.5h77q34 -36 65 -79.5t55 -95t38 -111.5t14 -129z" />
    <glyph glyph-name="asterisk" unicode="*" horiz-adv-x="440" 
d="M247 536l115 -112l-66 -49l-76 145l-75 -145l-66 49l114 112l-157 26l26 77l142 -75l-25 156h82l-25 -156l142 74l26 -76z" />
    <glyph glyph-name="plus" unicode="+" horiz-adv-x="600" 
d="M339 317v-218h-78v218h-217v76h217v218h78v-218h217v-76h-217z" />
    <glyph glyph-name="comma" unicode="," horiz-adv-x="198" 
d="M82 -118h-52l32 231h98z" />
    <glyph glyph-name="hyphen" unicode="-" horiz-adv-x="321" 
d="M40 243v79h242v-79h-242z" />
    <glyph glyph-name="period" unicode="." horiz-adv-x="198" 
d="M158 52q0 -26 -16.5 -42.5t-42.5 -16.5t-42.5 16.5t-16.5 42.5q0 25 16.5 41.5t42.5 16.5t42.5 -16.5t16.5 -41.5z" />
    <glyph glyph-name="slash" unicode="/" horiz-adv-x="394" 
d="M70 -95h-85l308 830h85z" />
    <glyph glyph-name="zero" unicode="0" horiz-adv-x="602" 
d="M553 346q0 -83 -17.5 -149t-50 -112.5t-79.5 -71.5t-105 -25q-59 0 -105.5 24.5t-79.5 71t-50.5 112.5t-17.5 149v29q0 83 17.5 149t50.5 112.5t79.5 71.5t105.5 25q58 0 105 -24.5t79.5 -71t50 -112.5t17.5 -149v-29v0zM459 381q0 60 -10 111.5t-29.5 88.5t-49 58
t-69.5 21t-70 -21t-49.5 -57.5t-29 -87.5t-9.5 -111v-44q0 -60 9.5 -111.5t29 -88.5t49.5 -58t70 -21t69.5 20.5t49 57.5t29.5 88t10 111v44z" />
    <glyph glyph-name="one" unicode="1" horiz-adv-x="446" 
d="M49 0v61h144v598h-156v61h246v-659h140v-61h-374z" />
    <glyph glyph-name="two" unicode="2" horiz-adv-x="557" 
d="M54 0v58q13 42 32.5 77t46.5 68t62.5 65.5t81.5 67.5q32 24 56.5 46t41 44.5t24.5 47t8 54.5q0 59 -32 96.5t-95 37.5q-55 0 -92 -31.5t-71 -102.5l-70 33q38 82 94.5 126.5t142.5 44.5q54 0 94 -15.5t66 -42.5t39 -64t13 -79t-10.5 -75t-31.5 -61.5t-52 -55t-72 -56.5
q-77 -56 -121 -105.5t-62 -108.5h358v-69h-451z" />
    <glyph glyph-name="three" unicode="3" horiz-adv-x="526" 
d="M489 251q0 -62 -35.5 -110t-98 -81t-148 -50t-186.5 -16v67q86 1 155.5 14t119 37.5t76 59t26.5 78.5q0 54 -32 80t-86 26q-31 0 -54 -4.5t-47 -12.5l-22 59q54 21 92 39.5t63 38t36.5 42t11.5 51.5q0 43 -26.5 69t-74.5 26q-43 0 -84 -23t-83 -68l-49 48
q47 50 101.5 80.5t125.5 30.5q87 0 133 -41.5t46 -107.5q0 -63 -43 -104t-118 -73l2 -4q42 4 78.5 -3t63.5 -25.5t42 -49.5t15 -73z" />
    <glyph glyph-name="four" unicode="4" horiz-adv-x="585" 
d="M456 197v-197h-90v197h-330v77l296 446h124v-466h95v-57h-95zM366 645h-12l-252 -379v-12h264v391z" />
    <glyph glyph-name="five" unicode="5" horiz-adv-x="548" 
d="M506 244q0 -64 -21.5 -111.5t-59 -79t-87.5 -47.5t-106 -16q-30 0 -55.5 2.5t-49 7.5t-46.5 13t-48 19l25 69q24 -11 45.5 -18.5t41.5 -12t41 -6.5t44 -2q85 0 134 47.5t49 132.5v4q0 72 -34.5 110t-99.5 38q-40 0 -69.5 -15.5t-58.5 -41.5h-82l37 383h361v-73h-297
l-26 -248h8q16 15 32 26.5t34 19.5t40 12.5t49 4.5q45 0 81.5 -13.5t62.5 -40.5t40.5 -66.5t14.5 -90.5v-7v0z" />
    <glyph glyph-name="six" unicode="6" horiz-adv-x="568" 
d="M538 228q0 -55 -19 -99t-52.5 -75.5t-79 -48.5t-99.5 -17t-98.5 16.5t-77 49t-50 81.5t-17.5 115q0 124 60.5 246.5t170.5 223.5h113q-52 -42 -94.5 -87t-74.5 -90.5t-52.5 -90.5t-29.5 -85h7q34 40 75.5 63t103.5 23q45 0 84 -15t68 -44t45.5 -70.5t16.5 -95.5zM448 223
q0 75 -40 120t-111 45q-36 0 -66 -13t-51 -35.5t-33 -53t-12 -64.5q0 -38 11.5 -69t32 -53t49 -34.5t63.5 -12.5q34 0 62.5 12t49.5 34.5t33 54t12 69.5z" />
    <glyph glyph-name="seven" unicode="7" horiz-adv-x="507" 
d="M491 664q-47 -65 -92.5 -145.5t-84.5 -168t-69 -177t-47 -173.5h-94q19 87 51 176t70.5 173.5t82 160.5t86.5 136h-374v74h471v-56v0z" />
    <glyph glyph-name="eight" unicode="8" horiz-adv-x="590" 
d="M546 196q0 -50 -20.5 -89t-55 -65.5t-80 -40t-95.5 -13.5t-95.5 13.5t-80 39.5t-55 64.5t-20.5 88.5q0 39 12 70.5t32.5 55t47 39t55.5 23.5v6q-25 8 -48 21.5t-40.5 33.5t-28 46t-10.5 58q0 42 17.5 76t48.5 58t73.5 37.5t91.5 13.5t91.5 -13t73.5 -37t48.5 -57.5
t17.5 -75.5q0 -32 -10.5 -58t-28 -46.5t-40.5 -34.5t-47 -22v-6q28 -8 54.5 -23t47 -38.5t32.5 -54.5t12 -70zM437 538q0 59 -38.5 94t-103.5 35t-103.5 -35t-38.5 -92q0 -30 11 -54t30.5 -41t45 -26t55.5 -9t55.5 8.5t45 25t30.5 40.5t11 54zM456 201q0 36 -12.5 64.5
t-34.5 48t-51.5 30t-62.5 10.5t-62.5 -10t-51.5 -29.5t-34.5 -47.5t-12.5 -64t12 -63.5t34 -47t51 -29.5t64 -10q34 0 63.5 10t51 29t34 46.5t12.5 62.5z" />
    <glyph glyph-name="nine" unicode="9" horiz-adv-x="568" 
d="M523 470q0 -124 -60.5 -246.5t-170.5 -223.5h-113q52 42 94 87t74 90.5t52.5 90t29.5 85.5h-6q-34 -40 -75.5 -63t-103.5 -23q-45 0 -84 15t-68 44t-45.5 70.5t-16.5 95.5q0 55 19 99t52.5 75.5t79 48.5t99.5 17t98.5 -16.5t77 -49t50 -81.5t17.5 -115zM433 498
q0 37 -11.5 68.5t-32 53.5t-49 34.5t-62.5 12.5q-35 0 -64 -12t-50 -34.5t-32.5 -54t-11.5 -69.5q0 -75 40 -120t111 -45q36 0 66 13t51.5 35.5t33 52.5t11.5 65z" />
    <glyph glyph-name="colon" unicode=":" horiz-adv-x="215" 
d="M167 467q0 -26 -16.5 -42.5t-42.5 -16.5t-42.5 16.5t-16.5 42.5t16.5 42.5t42.5 16.5t42.5 -16.5t16.5 -42.5zM167 52q0 -26 -16.5 -42.5t-42.5 -16.5t-42.5 16.5t-16.5 42.5q0 25 16.5 41.5t42.5 16.5t42.5 -16.5t16.5 -41.5z" />
    <glyph glyph-name="semicolon" unicode=";" horiz-adv-x="215" 
d="M168 467q0 -26 -16.5 -42.5t-42.5 -16.5t-42.5 16.5t-16.5 42.5t16.5 42.5t42.5 16.5t42.5 -16.5t16.5 -42.5zM82 -118h-52l32 231h98z" />
    <glyph glyph-name="less" unicode="&#x3c;" horiz-adv-x="600" 
d="M47 317v76l499 222v-81l-413 -179l413 -179v-81z" />
    <glyph glyph-name="equal" unicode="=" horiz-adv-x="600" 
d="M58 437v79h484v-79h-484zM58 194v79h484v-79h-484z" />
    <glyph glyph-name="greater" unicode="&#x3e;" horiz-adv-x="600" 
d="M54 95v81l413 179l-413 179v81l499 -222v-76z" />
    <glyph glyph-name="question" unicode="?" horiz-adv-x="456" 
d="M414 566q0 -30 -6 -53t-18.5 -44t-32.5 -41.5t-47 -44.5q-21 -19 -35 -35.5t-22.5 -35t-12.5 -42t-5 -56.5h-57q-2 43 0.5 73t10.5 54t23.5 44t40.5 43q38 35 54.5 65.5t16.5 68.5q0 44 -25.5 72t-73.5 28q-51 0 -81.5 -26t-56.5 -84l-68 31q29 70 78 109.5t132 39.5
q43 0 77.5 -12.5t58.5 -35t36.5 -53t12.5 -65.5zM263 50q0 -24 -16 -40.5t-41 -16.5q-24 0 -40.5 16.5t-16.5 40.5q0 25 16.5 41t40.5 16q25 0 41 -16t16 -41z" />
    <glyph glyph-name="at" unicode="@" horiz-adv-x="1001" 
d="M945 333q0 -68 -19.5 -124t-52 -96t-75 -62t-87.5 -22q-60 0 -90.5 33t-35.5 88h-5q-34 -57 -76 -89t-89 -32q-59 0 -94 44.5t-35 124.5q0 60 14 117t40 101.5t61.5 71.5t79.5 27q53 0 83 -33t47 -83l4 -1l20 116l77 -20l-54 -304q-5 -26 -3 -48t11 -39t25.5 -26.5
t41.5 -9.5q33 0 64 20t55 55t38.5 83.5t14.5 105.5q0 85 -28.5 153t-80 115.5t-122.5 73t-156 25.5q-89 0 -166 -33.5t-133.5 -92t-89 -137.5t-32.5 -169q0 -95 29.5 -173.5t83.5 -134t130 -86t169 -30.5q45 0 84.5 4.5t75 13.5t69 23t67.5 32l17 -29q-35 -19 -70 -33.5
t-73.5 -24.5t-80.5 -15t-91 -5q-101 0 -184 32.5t-142 92.5t-91.5 144.5t-32.5 187.5q0 99 37 184.5t100 148t147.5 98.5t179.5 36q90 0 167.5 -28.5t134.5 -80.5t89.5 -126t32.5 -164zM600 321q0 25 -6.5 49.5t-19 44t-30.5 31t-40 11.5q-29 0 -54 -20t-43.5 -54.5
t-29 -80.5t-10.5 -99q0 -55 21 -88t61 -33q28 0 55.5 21.5t48.5 55.5t34 76.5t13 85.5z" />
    <glyph glyph-name="A" unicode="A" horiz-adv-x="671" 
d="M551 0l-61 185h-312l-61 -185h-92l248 723h125l248 -723h-95zM338 652h-8l-134 -402h276z" />
    <glyph glyph-name="B" unicode="B" horiz-adv-x="614" 
d="M575 200q0 -48 -18.5 -85.5t-51.5 -63t-79 -38.5t-100 -13h-248v720h252q101 0 159 -45.5t58 -127.5q0 -36 -11 -62.5t-29 -45t-41 -31t-48 -19.5v-4q71 -17 114 -60t43 -125zM456 537q0 57 -36.5 85.5t-102.5 28.5h-150v-235h145q67 0 105.5 29.5t38.5 91.5zM484 206
q0 71 -41.5 108.5t-129.5 37.5h-146v-283h147q77 0 123.5 33t46.5 104z" />
    <glyph glyph-name="C" unicode="C" horiz-adv-x="587" 
d="M551 210q-11 -50 -30.5 -91t-49 -70t-69.5 -45t-91 -16q-60 0 -108.5 25t-82.5 71.5t-52.5 113t-18.5 150.5v22q0 84 18 151t52 114t83 72t110 25q51 0 90 -15t68 -43t48 -66.5t29 -86.5l-87 -23q-18 80 -53 121t-95 41q-43 0 -74.5 -21t-52 -58t-30.5 -88.5t-10 -112.5
v-38q0 -62 10 -113.5t31 -89t52.5 -58.5t74.5 -21q64 0 100 45.5t53 126.5l85 -22v0z" />
    <glyph glyph-name="D" unicode="D" horiz-adv-x="626" 
d="M577 352q0 -169 -81.5 -260.5t-228.5 -91.5h-189v720h192q149 0 228 -91.5t79 -259.5v-17v0zM481 374q0 135 -55 204.5t-162 69.5h-94v-576h98q102 0 157.5 69.5t55.5 203.5v29z" />
    <glyph glyph-name="E" unicode="E" horiz-adv-x="558" 
d="M78 0v720h431v-73h-339v-236h276v-71h-276v-267h351v-73h-443z" />
    <glyph glyph-name="F" unicode="F" horiz-adv-x="527" 
d="M171 647v-253h261v-72h-261v-322h-93v720h426v-73h-333z" />
    <glyph glyph-name="G" unicode="G" horiz-adv-x="626" 
d="M526 -1l-9 193h-5q-12 -47 -30 -84.5t-43.5 -64t-59 -41t-77.5 -14.5q-59 0 -105.5 25t-79.5 71.5t-50.5 113t-17.5 150.5v22q0 84 18.5 151t52 114t82 72t108.5 25q50 0 88.5 -14.5t67.5 -40.5t48.5 -62.5t31.5 -80.5l-87 -25q-19 72 -54 111.5t-95 39.5
q-41 0 -72 -20.5t-51.5 -57.5t-31 -88.5t-10.5 -113.5v-38q0 -63 11 -115t32 -89t51.5 -57.5t70.5 -20.5q72 0 110 59.5t49 170.5h-151v48h253v-339h-45z" />
    <glyph glyph-name="H" unicode="H" horiz-adv-x="632" 
d="M461 0v336h-290v-336h-93v720h93v-305h290v305h94v-720h-94z" />
    <glyph glyph-name="I" unicode="I" horiz-adv-x="399" 
d="M51 0v44h102v632h-102v44h297v-44h-102v-632h102v-44h-297z" />
    <glyph glyph-name="J" unicode="J" horiz-adv-x="499" 
d="M428 208q0 -106 -52 -163t-151 -57q-94 0 -146.5 48t-56.5 154l88 23q1 -44 10 -73t24.5 -46t36.5 -24.5t46 -7.5q49 0 78 33.5t29 108.5v516h94v-512v0z" />
    <glyph glyph-name="K" unicode="K" horiz-adv-x="606" 
d="M500 0l-300 388v2l285 330h106l-290 -327l307 -393h-108zM78 0v720h93v-720h-93z" />
    <glyph glyph-name="L" unicode="L" horiz-adv-x="515" 
d="M78 0v720h93v-643h326v-77h-419z" />
    <glyph glyph-name="M" unicode="M" horiz-adv-x="844" 
d="M678 0v627h-9l-199 -627h-100l-198 627h-9v-627h-85v720h153l189 -605h7l189 605h150v-720h-88z" />
    <glyph glyph-name="N" unicode="N" horiz-adv-x="647" 
d="M466 0l-295 589h-7v-589h-86v720h111l286 -573h7v573h87v-720h-103z" />
    <glyph glyph-name="O" unicode="O" horiz-adv-x="624" 
d="M575 350q0 -84 -18 -151t-52 -114t-83 -72t-110 -25t-110 25t-83 71.5t-52 113t-18 150.5v22q0 84 18 151t52 114t83 72t110 25t110 -25t83 -71.5t52 -113t18 -150.5v-22v0zM479 378q0 62 -10 114t-31 89.5t-52.5 58t-73.5 20.5t-73.5 -20.5t-52.5 -57.5t-31 -88.5
t-10 -113.5v-38q0 -63 10 -114.5t31 -89t52.5 -58t73.5 -20.5t73.5 20.5t52.5 57.5t31 88.5t10 113.5v38z" />
    <glyph glyph-name="P" unicode="P" horiz-adv-x="576" 
d="M541 512q0 -104 -64 -159t-184 -55h-122v-298h-93v720h221q114 0 178 -52.5t64 -155.5zM448 510q0 69 -40 105t-118 36h-122v-282h125q75 0 115 35.5t40 105.5z" />
    <glyph glyph-name="Q" unicode="Q" horiz-adv-x="624" 
d="M613 -103q-10 -3 -20.5 -4t-21.5 -1q-40 0 -65.5 13.5t-50.5 51.5l-37 55q-21 -11 -48 -17.5t-58 -6.5q-61 0 -110 25t-83 71.5t-52 113t-18 150.5v22q0 84 18 151t52 114t83 72t110 25t110 -25t83 -71.5t52 -113t18 -150.5v-22q0 -113 -29.5 -188t-77.5 -118l36 -50
q16 -20 31.5 -29.5t38.5 -9.5q17 0 39 5v-63v0zM479 378q0 62 -10 114t-31 89.5t-52.5 58t-73.5 20.5t-73.5 -20.5t-52.5 -57.5t-31 -88.5t-10 -113.5v-44q0 -63 10 -114.5t31 -89t52.5 -58t73.5 -20.5t70 17l-88 130l37 24l88 -119q31 35 45.5 94.5t14.5 133.5v44z" />
    <glyph glyph-name="R" unicode="R" horiz-adv-x="604" 
d="M469 0l-191 312h-107v-312h-93v720h232q113 0 176 -50t63 -153q0 -84 -45.5 -133t-133.5 -61l202 -323h-103zM456 515q0 136 -158 136h-130v-272h133q75 0 115 33t40 103z" />
    <glyph glyph-name="S" unicode="S" horiz-adv-x="573" 
d="M529 189q0 -50 -18.5 -87t-50 -62.5t-75 -38t-92.5 -12.5q-97 0 -159 39t-96 117l65 48q29 -68 77.5 -100.5t114.5 -32.5q64 0 106 31t42 89q0 26 -7.5 47t-26.5 38.5t-52.5 33t-84.5 31.5q-59 18 -99.5 39t-65.5 47t-36 57.5t-11 72.5q0 39 15 73t43.5 59t68 39t89.5 14
q163 0 228 -132l-64 -49q-29 52 -67.5 81t-97.5 29q-32 0 -56 -8.5t-40 -23t-24 -33.5t-8 -40q0 -25 7.5 -45t26.5 -36.5t51 -31.5t80 -31q62 -20 104 -41.5t67 -48t35.5 -59t10.5 -73.5z" />
    <glyph glyph-name="T" unicode="T" horiz-adv-x="569" 
d="M331 643v-643h-93v643h-219v77h531v-77h-219z" />
    <glyph glyph-name="U" unicode="U" horiz-adv-x="627" 
d="M555 252q0 -70 -18 -120t-50.5 -82t-77 -47t-96.5 -15q-53 0 -97 15t-76 47t-50 82t-18 120v468h93v-469q0 -50 11 -86t31 -59t48 -33.5t62 -10.5t61.5 10t47 32.5t30.5 58t11 85.5v472h88v-468v0z" />
    <glyph glyph-name="V" unicode="V" horiz-adv-x="627" 
d="M367 -6h-107l-235 726h97l191 -629h5l191 629h93z" />
    <glyph glyph-name="W" unicode="W" horiz-adv-x="966" 
d="M742 -5h-104l-155 612h-8l-154 -612h-104l-189 725h97l145 -617h7l149 617h109l151 -617h7l144 617h94z" />
    <glyph glyph-name="X" unicode="X" horiz-adv-x="633" 
d="M502 0l-189 298l-193 -298h-94l241 366l-226 354h104l176 -276l177 276h94l-227 -344l242 -376h-105z" />
    <glyph glyph-name="Y" unicode="Y" horiz-adv-x="623" 
d="M358 280v-280h-94v278l-249 442h101l199 -361l199 361h94z" />
    <glyph glyph-name="Z" unicode="Z" horiz-adv-x="552" 
d="M34 0v64l377 583h-358v73h464v-64l-376 -583h376v-73h-483z" />
    <glyph glyph-name="bracketleft" unicode="[" horiz-adv-x="351" 
d="M66 -89v818l261 -9v-45l-177 7v-724l177 7v-45z" />
    <glyph glyph-name="backslash" unicode="\" horiz-adv-x="394" 
d="M321 -95l-307 830h87l306 -830h-86z" />
    <glyph glyph-name="bracketright" unicode="]" horiz-adv-x="351" 
d="M24 -80v45l177 -7v724l-177 -7v45l261 9v-818z" />
    <glyph glyph-name="asciicircum" unicode="^" horiz-adv-x="550" 
d="M444 407l-169 238l-169 -238h-60l186 318h86l186 -318h-60z" />
    <glyph glyph-name="underscore" unicode="_" 
d="M-3 -90v48h506v-48h-506z" />
    <glyph glyph-name="grave" unicode="`" 
d="M279 592l-140 151h110l88 -151h-58z" />
    <glyph glyph-name="a" unicode="a" horiz-adv-x="496" 
d="M476 -4q-60 0 -94 24t-41 63h-6q-38 -47 -77.5 -68.5t-86.5 -21.5q-29 0 -54.5 9t-45 26.5t-31 43t-11.5 59.5q0 80 77.5 127.5t232.5 49.5v56q0 52 -21.5 76t-65.5 24q-38 0 -75 -12.5t-83 -38.5l-25 56q46 25 92.5 41t105.5 16q81 0 117.5 -37.5t36.5 -121.5v-262
q0 -32 13 -49.5t42 -20.5v-39v0zM339 267q-62 0 -105.5 -10t-70.5 -27.5t-39.5 -40.5t-12.5 -49q0 -44 25.5 -67.5t65.5 -23.5q38 0 73 19t64 59v140z" />
    <glyph glyph-name="b" unicode="b" horiz-adv-x="522" 
d="M482 256q0 -65 -14 -114t-37.5 -83t-54.5 -51t-66 -17q-53 0 -88.5 31t-63.5 85h-6v-116l-87 23v723l87 23v-348h6q30 54 65 86t89 32q37 0 68 -17t53.5 -50t35.5 -82t13 -114v-11v0zM396 259q0 57 -9.5 97t-25.5 65.5t-37.5 37t-44.5 11.5q-27 0 -51 -16.5t-41 -45
t-27 -66.5t-10 -82t10 -82t27 -66t41 -44.5t52 -16.5q24 0 45 12t36.5 37.5t25 65t9.5 93.5z" />
    <glyph glyph-name="c" unicode="c" horiz-adv-x="456" 
d="M428 130q-23 -68 -68.5 -104t-114.5 -36q-47 0 -85 18.5t-65 53t-41.5 83.5t-14.5 109v11q0 59 14.5 108t42 84t66.5 54.5t87 19.5q70 0 112.5 -35.5t63.5 -102.5l-75 -20q-16 48 -38.5 72.5t-64.5 24.5q-58 0 -89.5 -54.5t-31.5 -151.5v-6q0 -97 31.5 -152.5t90.5 -55.5
q39 0 63.5 24.5t43.5 75.5l73 -20v0z" />
    <glyph glyph-name="d" unicode="d" horiz-adv-x="522" 
d="M369 -9v118h-5q-31 -55 -65.5 -86.5t-88.5 -31.5q-37 0 -68 17t-53.5 50t-35.5 82t-13 114v11q0 64 14 113.5t37.5 83.5t54.5 51t66 17q53 0 88.5 -31.5t63.5 -85.5h5v324l87 23v-746zM371 261q0 43 -10 81.5t-27 66.5t-40.5 44.5t-51.5 16.5q-24 0 -45 -12.5t-36.5 -38
t-25 -65t-9.5 -93.5q0 -57 9.5 -96.5t25.5 -65t37.5 -37t44.5 -11.5q27 0 50.5 16.5t41 45t27 66.5t9.5 82z" />
    <glyph glyph-name="e" unicode="e" horiz-adv-x="470" 
d="M251 -9q-48 0 -87 17.5t-66.5 51.5t-43 83.5t-15.5 112.5v9q0 59 14.5 108t41 84t63 54.5t81.5 19.5t80.5 -19t60.5 -54t38 -84.5t13 -110.5v-21h-309q2 -96 39.5 -142.5t100.5 -46.5q38 0 71 14.5t67 42.5l29 -52q-38 -32 -79.5 -49.5t-98.5 -17.5zM348 287
q-5 94 -31 141t-78 47q-54 0 -83.5 -49t-33.5 -139h226z" />
    <glyph glyph-name="f" unicode="f" horiz-adv-x="340" 
d="M358 679q-17 9 -37 14t-48 5q-69 0 -69 -82v-99h128v-62h-128v-455h-87v455h-101v62h101v96q0 73 38 109.5t105 36.5q34 0 56 -3.5t42 -10.5v-66v0z" />
    <glyph glyph-name="g" unicode="g" horiz-adv-x="522" 
d="M456 24q0 -59 -15 -99.5t-42.5 -66t-66.5 -37t-88 -11.5q-54 0 -89.5 6.5t-62.5 17.5v68h24q16 -17 44.5 -29.5t80.5 -12.5q28 0 52 8t40.5 25.5t26 46t9.5 69.5v100h-5q-31 -55 -65.5 -86.5t-88.5 -31.5q-37 0 -68 17t-53.5 50t-35.5 82t-13 114v11q0 64 14 113.5
t37.5 83.5t54.5 51t66 17q53 0 88.5 -31.5t63.5 -85.5h5v117l87 -23v-483v0zM371 261q0 43 -10 81.5t-27 66.5t-40.5 44.5t-51.5 16.5q-24 0 -45 -12.5t-36.5 -38t-25 -65t-9.5 -93.5q0 -57 9.5 -96.5t25.5 -65t37.5 -37t44.5 -11.5q27 0 50.5 16.5t41 45t27 66.5t9.5 82z
" />
    <glyph glyph-name="h" unicode="h" horiz-adv-x="505" 
d="M357 0v385q0 78 -65 78q-33 0 -69 -28t-71 -81v-354h-87v737l87 23v-359h6q42 58 84 91.5t95 33.5q54 0 80.5 -32.5t26.5 -89.5v-404h-87z" />
    <glyph glyph-name="i" unicode="i" horiz-adv-x="233" 
d="M66 630v93h102v-93h-102zM73 0v521h87v-521h-87z" />
    <glyph glyph-name="j" unicode="j" horiz-adv-x="233" 
d="M66 630v93h102v-93h-102zM160 -51q0 -75 -33.5 -107t-97.5 -32q-23 0 -38.5 3t-31.5 8v58q14 -5 26 -7.5t28 -2.5q28 0 44 16.5t16 57.5v578h87v-572v0z" />
    <glyph glyph-name="k" unicode="k" horiz-adv-x="480" 
d="M65 0v737l87 23v-760h-87zM377 0l-207 261v3l202 257h95l-207 -256l215 -265h-98z" />
    <glyph glyph-name="l" unicode="l" horiz-adv-x="233" 
d="M73 0v737l87 23v-760h-87z" />
    <glyph glyph-name="m" unicode="m" horiz-adv-x="789" 
d="M641 0v385q0 78 -63 78q-33 0 -68 -28t-70 -81v-354h-87v385q0 78 -64 78q-32 0 -67 -28t-70 -81v-354h-87v507l87 23v-129h6q42 58 83 91.5t93 33.5t77.5 -30t28.5 -79v-16h6q42 58 82.5 91.5t93.5 33.5q54 0 80.5 -32.5t26.5 -89.5v-404h-88z" />
    <glyph glyph-name="n" unicode="n" horiz-adv-x="506" 
d="M357 0v385q0 78 -65 78q-33 0 -69 -28t-71 -81v-354h-87v507l87 23v-129h6q42 58 84 91.5t95 33.5q54 0 80.5 -32.5t26.5 -89.5v-404h-87z" />
    <glyph glyph-name="o" unicode="o" horiz-adv-x="501" 
d="M461 256q0 -59 -14.5 -108t-41.5 -84t-66 -54.5t-88 -19.5t-88.5 19t-67 53.5t-42 83.5t-14.5 108v11q0 59 14.5 108t42 84t67 54.5t88.5 19.5t88 -19t66 -53.5t41.5 -83.5t14.5 -108v-11v0zM375 265q0 98 -32 153t-92 55q-61 0 -93 -54.5t-32 -151.5v-12
q0 -97 32 -152.5t93 -55.5q60 0 92 55t32 152v11z" />
    <glyph glyph-name="p" unicode="p" horiz-adv-x="522" 
d="M482 256q0 -65 -14 -114t-37.5 -83t-54.5 -51t-66 -17q-53 0 -88.5 31t-63.5 85h-6v-295h-87v695l87 23v-118h6q30 54 65 86t89 32q37 0 68 -17t53.5 -50t35.5 -82t13 -114v-11v0zM396 259q0 57 -9.5 97t-25.5 65.5t-37.5 37t-44.5 11.5q-27 0 -51 -16.5t-41 -45
t-27 -66.5t-10 -82t10 -82t27 -66t41 -44.5t52 -16.5q24 0 45 12t36.5 37.5t25 65t9.5 93.5z" />
    <glyph glyph-name="q" unicode="q" horiz-adv-x="522" 
d="M369 -188v297h-5q-31 -55 -65.5 -86.5t-88.5 -31.5q-37 0 -68 17t-53.5 50t-35.5 82t-13 114v11q0 64 14 113.5t37.5 83.5t54.5 51t66 17q53 0 88.5 -31.5t63.5 -85.5h5v117l87 -23v-695h-87zM371 261q0 43 -10 81.5t-27 66.5t-40.5 44.5t-51.5 16.5q-24 0 -45 -12.5
t-36.5 -38t-25 -65t-9.5 -93.5q0 -57 9.5 -96.5t25.5 -65t37.5 -37t44.5 -11.5q27 0 50.5 16.5t41 45t27 66.5t9.5 82z" />
    <glyph glyph-name="r" unicode="r" horiz-adv-x="382" 
d="M366 436q-66 -13 -120.5 -57t-93.5 -102v-277h-87v507l87 23v-203h6q51 91 102.5 141.5t105.5 61.5v-94v0z" />
    <glyph glyph-name="s" unicode="s" horiz-adv-x="418" 
d="M389 139q0 -36 -14 -64t-38 -46.5t-56 -28t-69 -9.5q-63 0 -108 19.5t-78 48.5l40 50q32 -29 68.5 -44.5t78.5 -15.5t70.5 20.5t28.5 59.5q0 19 -5 32.5t-18 25t-36 22t-58 22.5q-82 28 -117.5 65.5t-35.5 92.5q0 31 12 56.5t33.5 44t51.5 29t66 10.5q52 0 90.5 -14.5
t76.5 -43.5l-41 -52q-33 27 -62.5 40t-64.5 13q-42 0 -63.5 -22t-21.5 -51q0 -33 25.5 -53t86.5 -41q44 -15 74.5 -31.5t49 -36.5t26.5 -44t8 -54z" />
    <glyph glyph-name="t" unicode="t" horiz-adv-x="371" 
d="M351 25q-32 -18 -62 -26.5t-64 -8.5q-53 0 -84 26t-31 86v353h-94v62h94v169l86 44v-213h132v-62h-132v-336q0 -32 15.5 -46.5t39.5 -14.5q21 0 44.5 8t55.5 27v-68v0z" />
    <glyph glyph-name="u" unicode="u" horiz-adv-x="505" 
d="M352 -9v129h-5q-42 -59 -84.5 -92.5t-94.5 -33.5q-54 0 -80.5 32.5t-26.5 89.5v405h87v-386q0 -77 65 -77q33 0 69 27.5t70 81.5v354h88v-507z" />
    <glyph glyph-name="v" unicode="v" horiz-adv-x="480" 
d="M286 -5h-93l-170 526h90l129 -436l130 436h85z" />
    <glyph glyph-name="w" unicode="w" horiz-adv-x="770" 
d="M588 -4h-89l-113 418l-113 -418h-91l-157 525h90l116 -431l114 431h85l114 -431l116 431h85z" />
    <glyph glyph-name="x" unicode="x" horiz-adv-x="488" 
d="M368 0l-127 205l-128 -205h-87l173 262l-168 259h95l121 -198l122 198h88l-168 -253l174 -268h-95z" />
    <glyph glyph-name="y" unicode="y" horiz-adv-x="480" 
d="M269 -60q-12 -38 -27.5 -63t-34.5 -40.5t-42.5 -22t-52.5 -6.5q-28 0 -48 5t-39 13v64h23q10 -16 23 -24t36 -8q28 0 46.5 18t32.5 54l16 47l-179 544h90l129 -439l130 439h85z" />
    <glyph glyph-name="z" unicode="z" horiz-adv-x="428" 
d="M29 0v54l270 402h-255v61h354v-53l-270 -403h270v-61h-369z" />
    <glyph glyph-name="braceleft" unicode="{" horiz-adv-x="398" 
d="M270 -80q-69 0 -103.5 32t-34.5 93q0 17 3 37t7 40.5t7 40.5t3 36q0 27 -10 45.5t-27.5 30t-41.5 17t-52 5.5v46q28 0 52 5.5t41.5 17t27.5 30t10 45.5q0 16 -3 36t-7 40.5t-7 40.5t-3 37q0 61 34.5 93t103.5 32h96v-45h-68q-43 0 -62.5 -22t-19.5 -56q0 -15 3 -33.5
t7 -38t7 -40t3 -38.5q0 -29 -8.5 -49t-23 -34t-33.5 -23.5t-40 -16.5v-8q21 -7 40 -16.5t33.5 -23.5t23 -34t8.5 -49q0 -18 -3 -38.5t-7 -40t-7 -38t-3 -33.5q0 -34 19.5 -56t62.5 -22h68v-45h-96z" />
    <glyph glyph-name="bar" unicode="|" horiz-adv-x="242" 
d="M83 -188v950h76v-950h-76z" />
    <glyph glyph-name="braceright" unicode="}" horiz-adv-x="398" 
d="M376 297q-28 0 -52 -5.5t-41.5 -17t-27.5 -30t-10 -45.5q0 -16 3 -36t7 -40.5t7 -40.5t3 -37q0 -61 -34.5 -93t-103.5 -32h-96v45h69q42 0 62 22t20 56q0 15 -3 33.5t-7 38t-7 40t-3 38.5q0 29 8.5 49t23 34t33.5 23.5t40 16.5v8q-21 7 -40 16.5t-33.5 23.5t-23 34
t-8.5 49q0 18 3 38.5t7 40t7 38t3 33.5q0 34 -20 56t-62 22h-69v45h96q69 0 103.5 -32t34.5 -93q0 -17 -3 -37t-7 -40.5t-7 -40.5t-3 -36q0 -27 10 -45.5t27.5 -30t41.5 -17t52 -5.5v-46v0z" />
    <glyph glyph-name="asciitilde" unicode="~" horiz-adv-x="393" 
d="M355 341q1 -61 -19.5 -89.5t-63.5 -28.5q-21 0 -41.5 8.5t-39 19t-35 19t-30.5 8.5q-40 0 -40 -53h-48q-1 61 19.5 89.5t63.5 28.5q22 0 42 -9t39 -19.5t35.5 -19t30.5 -8.5q20 0 29.5 12.5t9.5 41.5h48v0z" />
    <glyph glyph-name="Adieresis" unicode="&#xc4;" horiz-adv-x="671" 
d="M551 0l-61 185h-312l-61 -185h-92l248 723h125l248 -723h-95zM338 652h-8l-134 -402h276zM385 771v97h85v-97h-85zM202 771v97h85v-97h-85z" />
    <glyph glyph-name="Aring" unicode="&#xc5;" horiz-adv-x="671" 
d="M439 859q0 -41 -28 -67t-75 -26t-75 26t-28 67t28 66.5t75 25.5t75 -25.5t28 -66.5zM551 0l-61 185h-312l-61 -185h-92l248 723h125l248 -723h-95zM390 859q0 25 -15.5 41t-38.5 16t-38.5 -16t-15.5 -41t15.5 -41t38.5 -16t38.5 16t15.5 41zM338 652h-8l-134 -402h276z
" />
    <glyph glyph-name="Ccedilla" unicode="&#xc7;" horiz-adv-x="587" 
d="M551 210q-21 -97 -75 -156.5t-148 -64.5l-25 -41q22 8 47 8q34 0 54.5 -14t20.5 -43q0 -95 -224 -90v26q89 1 124.5 15t35.5 37q0 28 -38 28q-28 0 -55 -12l-25 16l47 70q-56 4 -101 31t-76 73t-47.5 110.5t-16.5 144.5v22q0 84 18 151t52 114t83 72t110 25q51 0 90 -15
t68 -43t48 -66.5t29 -86.5l-87 -23q-18 80 -53 121t-95 41q-43 0 -74.5 -21t-52 -58t-30.5 -88.5t-10 -112.5v-38q0 -62 10 -113.5t31 -89t52.5 -58.5t74.5 -21q64 0 100 45.5t53 126.5l85 -22v0z" />
    <glyph glyph-name="Eacute" unicode="&#xc9;" horiz-adv-x="558" 
d="M78 0v720h431v-73h-339v-236h276v-71h-276v-267h351v-73h-443zM288 771h-58l88 151h110z" />
    <glyph glyph-name="Ntilde" unicode="&#xd1;" horiz-adv-x="647" 
d="M466 0l-295 589h-7v-589h-86v720h111l286 -573h7v573h87v-720h-103zM478 889q2 -61 -18.5 -89.5t-64.5 -28.5q-21 0 -41.5 8.5t-39 19t-35 19t-30.5 8.5q-20 0 -29.5 -12t-10.5 -41h-47q-2 61 18.5 89.5t64.5 28.5q21 0 41.5 -8.5t39 -19t35 -19t30.5 -8.5q20 0 29.5 12
t10.5 41h47v0z" />
    <glyph glyph-name="Odieresis" unicode="&#xd6;" horiz-adv-x="624" 
d="M575 350q0 -84 -18 -151t-52 -114t-83 -72t-110 -25t-110 25t-83 71.5t-52 113t-18 150.5v22q0 84 18 151t52 114t83 72t110 25t110 -25t83 -71.5t52 -113t18 -150.5v-22v0zM479 378q0 62 -10 114t-31 89.5t-52.5 58t-73.5 20.5t-73.5 -20.5t-52.5 -57.5t-31 -88.5
t-10 -113.5v-38q0 -63 10 -114.5t31 -89t52.5 -58t73.5 -20.5t73.5 20.5t52.5 57.5t31 88.5t10 113.5v38zM361 776v97h85v-97h-85zM178 776v97h85v-97h-85z" />
    <glyph glyph-name="Udieresis" unicode="&#xdc;" horiz-adv-x="627" 
d="M555 252q0 -70 -18 -120t-50.5 -82t-77 -47t-96.5 -15q-53 0 -97 15t-76 47t-50 82t-18 120v468h93v-469q0 -50 11 -86t31 -59t48 -33.5t62 -10.5t61.5 10t47 32.5t30.5 58t11 85.5v472h88v-468v0zM365 771v97h85v-97h-85zM182 771v97h85v-97h-85z" />
    <glyph glyph-name="aacute" unicode="&#xe1;" horiz-adv-x="496" 
d="M476 -4q-60 0 -94 24t-41 63h-6q-38 -47 -77.5 -68.5t-86.5 -21.5q-29 0 -54.5 9t-45 26.5t-31 43t-11.5 59.5q0 80 77.5 127.5t232.5 49.5v56q0 52 -21.5 76t-65.5 24q-38 0 -75 -12.5t-83 -38.5l-25 56q46 25 92.5 41t105.5 16q81 0 117.5 -37.5t36.5 -121.5v-262
q0 -32 13 -49.5t42 -20.5v-39v0zM339 267q-62 0 -105.5 -10t-70.5 -27.5t-39.5 -40.5t-12.5 -49q0 -44 25.5 -67.5t65.5 -23.5q38 0 73 19t64 59v140zM253 592h-58l88 151h110z" />
    <glyph glyph-name="agrave" unicode="&#xe0;" horiz-adv-x="496" 
d="M476 -4q-60 0 -94 24t-41 63h-6q-38 -47 -77.5 -68.5t-86.5 -21.5q-29 0 -54.5 9t-45 26.5t-31 43t-11.5 59.5q0 80 77.5 127.5t232.5 49.5v56q0 52 -21.5 76t-65.5 24q-38 0 -75 -12.5t-83 -38.5l-25 56q46 25 92.5 41t105.5 16q81 0 117.5 -37.5t36.5 -121.5v-262
q0 -32 13 -49.5t42 -20.5v-39v0zM339 267q-62 0 -105.5 -10t-70.5 -27.5t-39.5 -40.5t-12.5 -49q0 -44 25.5 -67.5t65.5 -23.5q38 0 73 19t64 59v140zM239 592l-140 151h110l88 -151h-58z" />
    <glyph glyph-name="acircumflex" unicode="&#xe2;" horiz-adv-x="496" 
d="M476 -4q-60 0 -94 24t-41 63h-6q-38 -47 -77.5 -68.5t-86.5 -21.5q-29 0 -54.5 9t-45 26.5t-31 43t-11.5 59.5q0 80 77.5 127.5t232.5 49.5v56q0 52 -21.5 76t-65.5 24q-38 0 -75 -12.5t-83 -38.5l-25 56q46 25 92.5 41t105.5 16q81 0 117.5 -37.5t36.5 -121.5v-262
q0 -32 13 -49.5t42 -20.5v-39v0zM339 267q-62 0 -105.5 -10t-70.5 -27.5t-39.5 -40.5t-12.5 -49q0 -44 25.5 -67.5t65.5 -23.5q38 0 73 19t64 59v140zM355 589l-111 100l-111 -100h-46l122 160h72l122 -160h-48z" />
    <glyph glyph-name="adieresis" unicode="&#xe4;" horiz-adv-x="496" 
d="M476 -4q-60 0 -94 24t-41 63h-6q-38 -47 -77.5 -68.5t-86.5 -21.5q-29 0 -54.5 9t-45 26.5t-31 43t-11.5 59.5q0 80 77.5 127.5t232.5 49.5v56q0 52 -21.5 76t-65.5 24q-38 0 -75 -12.5t-83 -38.5l-25 56q46 25 92.5 41t105.5 16q81 0 117.5 -37.5t36.5 -121.5v-262
q0 -32 13 -49.5t42 -20.5v-39v0zM339 267q-62 0 -105.5 -10t-70.5 -27.5t-39.5 -40.5t-12.5 -49q0 -44 25.5 -67.5t65.5 -23.5q38 0 73 19t64 59v140zM299 592v97h85v-97h-85zM116 592v97h85v-97h-85z" />
    <glyph glyph-name="atilde" unicode="&#xe3;" horiz-adv-x="496" 
d="M476 -4q-60 0 -94 24t-41 63h-6q-38 -47 -77.5 -68.5t-86.5 -21.5q-29 0 -54.5 9t-45 26.5t-31 43t-11.5 59.5q0 80 77.5 127.5t232.5 49.5v56q0 52 -21.5 76t-65.5 24q-38 0 -75 -12.5t-83 -38.5l-25 56q46 25 92.5 41t105.5 16q81 0 117.5 -37.5t36.5 -121.5v-262
q0 -32 13 -49.5t42 -20.5v-39v0zM339 267q-62 0 -105.5 -10t-70.5 -27.5t-39.5 -40.5t-12.5 -49q0 -44 25.5 -67.5t65.5 -23.5q38 0 73 19t64 59v140zM404 710q2 -61 -18.5 -89.5t-64.5 -28.5q-21 0 -41.5 8.5t-39 19t-35 19t-30.5 8.5q-20 0 -29.5 -12t-10.5 -41h-47
q-2 61 18.5 89.5t64.5 28.5q21 0 41.5 -8.5t39 -19t35 -19t30.5 -8.5q20 0 29.5 12t10.5 41h47v0z" />
    <glyph glyph-name="aring" unicode="&#xe5;" horiz-adv-x="496" 
d="M476 -4q-60 0 -94 24t-41 63h-6q-38 -47 -77.5 -68.5t-86.5 -21.5q-29 0 -54.5 9t-45 26.5t-31 43t-11.5 59.5q0 80 77.5 127.5t232.5 49.5v56q0 52 -21.5 76t-65.5 24q-38 0 -75 -12.5t-83 -38.5l-25 56q46 25 92.5 41t105.5 16q81 0 117.5 -37.5t36.5 -121.5v-262
q0 -32 13 -49.5t42 -20.5v-39v0zM339 267q-62 0 -105.5 -10t-70.5 -27.5t-39.5 -40.5t-12.5 -49q0 -44 25.5 -67.5t65.5 -23.5q38 0 73 19t64 59v140zM349 678q0 -41 -28 -67t-75 -26t-75 26t-28 67t28 66.5t75 25.5t75 -25.5t28 -66.5zM300 678q0 25 -15.5 41t-38.5 16
t-38.5 -16t-15.5 -41t15.5 -41t38.5 -16t38.5 16t15.5 41z" />
    <glyph glyph-name="ccedilla" unicode="&#xe7;" horiz-adv-x="456" 
d="M428 130q-21 -63 -63 -99t-105 -41l-27 -42q22 8 47 8q34 0 54.5 -14t20.5 -43q0 -94 -224 -90v26q90 1 125.5 15t35.5 37q0 28 -38 28q-28 0 -55 -12l-25 16l47 72q-42 5 -75.5 25.5t-57 55t-36.5 80.5t-13 102v11q0 59 14.5 108t42 84t66.5 54.5t87 19.5
q70 0 112.5 -35.5t63.5 -102.5l-75 -20q-17 48 -39 72.5t-64 24.5q-58 0 -89.5 -54.5t-31.5 -151.5v-6q0 -97 31.5 -152.5t90.5 -55.5q39 0 63.5 24.5t43.5 75.5l73 -20v0z" />
    <glyph glyph-name="eacute" unicode="&#xe9;" horiz-adv-x="470" 
d="M251 -9q-48 0 -87 17.5t-66.5 51.5t-43 83.5t-15.5 112.5v9q0 59 14.5 108t41 84t63 54.5t81.5 19.5t80.5 -19t60.5 -54t38 -84.5t13 -110.5v-21h-309q2 -96 39.5 -142.5t100.5 -46.5q38 0 71 14.5t67 42.5l29 -52q-38 -32 -79.5 -49.5t-98.5 -17.5zM348 287
q-5 94 -31 141t-78 47q-54 0 -83.5 -49t-33.5 -139h226zM240 592h-58l88 151h110z" />
    <glyph glyph-name="egrave" unicode="&#xe8;" horiz-adv-x="470" 
d="M251 -9q-48 0 -87 17.5t-66.5 51.5t-43 83.5t-15.5 112.5v9q0 59 14.5 108t41 84t63 54.5t81.5 19.5t80.5 -19t60.5 -54t38 -84.5t13 -110.5v-21h-309q2 -96 39.5 -142.5t100.5 -46.5q38 0 71 14.5t67 42.5l29 -52q-38 -32 -79.5 -49.5t-98.5 -17.5zM348 287
q-5 94 -31 141t-78 47q-54 0 -83.5 -49t-33.5 -139h226zM228 592l-140 151h110l88 -151h-58z" />
    <glyph glyph-name="ecircumflex" unicode="&#xea;" horiz-adv-x="470" 
d="M251 -9q-48 0 -87 17.5t-66.5 51.5t-43 83.5t-15.5 112.5v9q0 59 14.5 108t41 84t63 54.5t81.5 19.5t80.5 -19t60.5 -54t38 -84.5t13 -110.5v-21h-309q2 -96 39.5 -142.5t100.5 -46.5q38 0 71 14.5t67 42.5l29 -52q-38 -32 -79.5 -49.5t-98.5 -17.5zM348 287
q-5 94 -31 141t-78 47q-54 0 -83.5 -49t-33.5 -139h226zM348 585l-111 100l-111 -100h-46l122 160h72l122 -160h-48z" />
    <glyph glyph-name="edieresis" unicode="&#xeb;" horiz-adv-x="470" 
d="M251 -9q-48 0 -87 17.5t-66.5 51.5t-43 83.5t-15.5 112.5v9q0 59 14.5 108t41 84t63 54.5t81.5 19.5t80.5 -19t60.5 -54t38 -84.5t13 -110.5v-21h-309q2 -96 39.5 -142.5t100.5 -46.5q38 0 71 14.5t67 42.5l29 -52q-38 -32 -79.5 -49.5t-98.5 -17.5zM348 287
q-5 94 -31 141t-78 47q-54 0 -83.5 -49t-33.5 -139h226zM287 592v97h85v-97h-85zM104 592v97h85v-97h-85z" />
    <glyph glyph-name="iacute" unicode="&#xed;" horiz-adv-x="233" 
d="M73 0v521h87v-521h-87zM144 592h-58l88 151h110z" />
    <glyph glyph-name="igrave" unicode="&#xec;" horiz-adv-x="233" 
d="M73 0v521h87v-521h-87zM91 592l-140 151h110l88 -151h-58z" />
    <glyph glyph-name="icircumflex" unicode="&#xee;" horiz-adv-x="233" 
d="M73 0v521h87v-521h-87zM228 589l-111 100l-111 -100h-46l122 160h72l122 -160h-48z" />
    <glyph glyph-name="idieresis" unicode="&#xef;" horiz-adv-x="233" 
d="M73 0v521h87v-521h-87zM167 592v97h85v-97h-85zM-16 592v97h85v-97h-85z" />
    <glyph glyph-name="ntilde" unicode="&#xf1;" horiz-adv-x="506" 
d="M357 0v385q0 78 -65 78q-33 0 -69 -28t-71 -81v-354h-87v507l87 23v-129h6q42 58 84 91.5t95 33.5q54 0 80.5 -32.5t26.5 -89.5v-404h-87zM412 710q2 -61 -18.5 -89.5t-64.5 -28.5q-21 0 -41.5 8.5t-39 19t-35 19t-30.5 8.5q-20 0 -29.5 -12t-10.5 -41h-47
q-2 61 18.5 89.5t64.5 28.5q21 0 41.5 -8.5t39 -19t35 -19t30.5 -8.5q20 0 29.5 12t10.5 41h47v0z" />
    <glyph glyph-name="oacute" unicode="&#xf3;" horiz-adv-x="501" 
d="M461 256q0 -59 -14.5 -108t-41.5 -84t-66 -54.5t-88 -19.5t-88.5 19t-67 53.5t-42 83.5t-14.5 108v11q0 59 14.5 108t42 84t67 54.5t88.5 19.5t88 -19t66 -53.5t41.5 -83.5t14.5 -108v-11v0zM375 265q0 98 -32 153t-92 55q-61 0 -93 -54.5t-32 -151.5v-12
q0 -97 32 -152.5t93 -55.5q60 0 92 55t32 152v11zM262 592h-58l88 151h110z" />
    <glyph glyph-name="ograve" unicode="&#xf2;" horiz-adv-x="501" 
d="M461 256q0 -59 -14.5 -108t-41.5 -84t-66 -54.5t-88 -19.5t-88.5 19t-67 53.5t-42 83.5t-14.5 108v11q0 59 14.5 108t42 84t67 54.5t88.5 19.5t88 -19t66 -53.5t41.5 -83.5t14.5 -108v-11v0zM375 265q0 98 -32 153t-92 55q-61 0 -93 -54.5t-32 -151.5v-12
q0 -97 32 -152.5t93 -55.5q60 0 92 55t32 152v11zM240 592l-140 151h110l88 -151h-58z" />
    <glyph glyph-name="ocircumflex" unicode="&#xf4;" horiz-adv-x="501" 
d="M461 256q0 -59 -14.5 -108t-41.5 -84t-66 -54.5t-88 -19.5t-88.5 19t-67 53.5t-42 83.5t-14.5 108v11q0 59 14.5 108t42 84t67 54.5t88.5 19.5t88 -19t66 -53.5t41.5 -83.5t14.5 -108v-11v0zM375 265q0 98 -32 153t-92 55q-61 0 -93 -54.5t-32 -151.5v-12
q0 -97 32 -152.5t93 -55.5q60 0 92 55t32 152v11zM360 585l-111 100l-111 -100h-46l122 160h72l122 -160h-48z" />
    <glyph glyph-name="odieresis" unicode="&#xf6;" horiz-adv-x="501" 
d="M461 256q0 -59 -14.5 -108t-41.5 -84t-66 -54.5t-88 -19.5t-88.5 19t-67 53.5t-42 83.5t-14.5 108v11q0 59 14.5 108t42 84t67 54.5t88.5 19.5t88 -19t66 -53.5t41.5 -83.5t14.5 -108v-11v0zM375 265q0 98 -32 153t-92 55q-61 0 -93 -54.5t-32 -151.5v-12
q0 -97 32 -152.5t93 -55.5q60 0 92 55t32 152v11zM299 592v97h85v-97h-85zM116 592v97h85v-97h-85z" />
    <glyph glyph-name="otilde" unicode="&#xf5;" horiz-adv-x="501" 
d="M461 256q0 -59 -14.5 -108t-41.5 -84t-66 -54.5t-88 -19.5t-88.5 19t-67 53.5t-42 83.5t-14.5 108v11q0 59 14.5 108t42 84t67 54.5t88.5 19.5t88 -19t66 -53.5t41.5 -83.5t14.5 -108v-11v0zM375 265q0 98 -32 153t-92 55q-61 0 -93 -54.5t-32 -151.5v-12
q0 -97 32 -152.5t93 -55.5q60 0 92 55t32 152v11zM407 710q2 -61 -18.5 -89.5t-64.5 -28.5q-21 0 -41.5 8.5t-39 19t-35 19t-30.5 8.5q-20 0 -29.5 -12t-10.5 -41h-47q-2 61 18.5 89.5t64.5 28.5q21 0 41.5 -8.5t39 -19t35 -19t30.5 -8.5q20 0 29.5 12t10.5 41h47v0z" />
    <glyph glyph-name="uacute" unicode="&#xfa;" horiz-adv-x="505" 
d="M352 -9v129h-5q-42 -59 -84.5 -92.5t-94.5 -33.5q-54 0 -80.5 32.5t-26.5 89.5v405h87v-386q0 -77 65 -77q33 0 69 27.5t70 81.5v354h88v-507zM260 592h-58l88 151h110z" />
    <glyph glyph-name="ugrave" unicode="&#xf9;" horiz-adv-x="505" 
d="M352 -9v129h-5q-42 -59 -84.5 -92.5t-94.5 -33.5q-54 0 -80.5 32.5t-26.5 89.5v405h87v-386q0 -77 65 -77q33 0 69 27.5t70 81.5v354h88v-507zM241 592l-140 151h110l88 -151h-58z" />
    <glyph glyph-name="ucircumflex" unicode="&#xfb;" horiz-adv-x="505" 
d="M352 -9v129h-5q-42 -59 -84.5 -92.5t-94.5 -33.5q-54 0 -80.5 32.5t-26.5 89.5v405h87v-386q0 -77 65 -77q33 0 69 27.5t70 81.5v354h88v-507zM361 589l-111 100l-111 -100h-46l122 160h72l122 -160h-48z" />
    <glyph glyph-name="udieresis" unicode="&#xfc;" horiz-adv-x="505" 
d="M352 -9v129h-5q-42 -59 -84.5 -92.5t-94.5 -33.5q-54 0 -80.5 32.5t-26.5 89.5v405h87v-386q0 -77 65 -77q33 0 69 27.5t70 81.5v354h88v-507zM300 592v97h85v-97h-85zM117 592v97h85v-97h-85z" />
    <glyph glyph-name="dagger" unicode="&#x2020;" horiz-adv-x="445" 
d="M248 479l22 -135l-31 -344h-34l-31 344l22 135l-166 -21v73l166 -22l-22 211h96l-22 -211l166 22v-73z" />
    <glyph glyph-name="degree" unicode="&#xb0;" horiz-adv-x="400" 
d="M351 575q0 -32 -11.5 -59.5t-31.5 -47t-47.5 -30.5t-60.5 -11t-60.5 11t-47.5 30.5t-31.5 47t-11.5 59.5q0 33 11.5 60t31.5 47t47.5 31t60.5 11t60.5 -11t47.5 -31t31.5 -47t11.5 -60zM297 575q0 45 -27 73.5t-70 28.5t-70 -28.5t-27 -73.5t27 -73t70 -28t70 28t27 73z
" />
    <glyph glyph-name="cent" unicode="&#xa2;" horiz-adv-x="470" 
d="M130 27q-44 32 -67.5 90.5t-23.5 136.5v11q0 59 14.5 108t42 84t66.5 54.5t87 19.5q49 0 83 -19l42 104h54l-228 -555q20 -13 48 -13q39 0 65.5 24.5t45.5 77.5l69 -20q-23 -68 -68.5 -104t-114.5 -36q-41 0 -72 14l-41 -99h-55zM308 456q-26 16 -60 16q-59 0 -93 -55
t-34 -153v-6q0 -53 13 -94.5t36 -67.5z" />
    <glyph glyph-name="sterling" unicode="&#xa3;" horiz-adv-x="580" 
d="M556 172q-18 -92 -57 -135t-115 -43q-51 0 -93.5 18.5t-89.5 50.5q-53 -50 -146 -69v69q27 7 49 18t37.5 29t24.5 44t9 61q0 32 -5 60.5t-13 55.5h-120v53h103q-12 38 -22 74t-10 76q0 42 13 78t39.5 63t65.5 42t91 15q81 0 129 -30t80 -84l-73 -41q-27 43 -59 64.5
t-79 21.5q-63 0 -92.5 -35.5t-29.5 -92.5q0 -38 10.5 -74.5t23.5 -76.5h189v-53h-173q6 -26 10.5 -54.5t4.5 -60.5q0 -54 -18 -94q73 -56 137 -56q48 0 75 27.5t42 99.5l62 -21v0z" />
    <glyph glyph-name="section" unicode="&#xa7;" horiz-adv-x="582" 
d="M547 353q0 -48 -43.5 -82.5t-124.5 -40.5v-6q55 -17 80 -46t25 -69q0 -55 -49 -88t-133 -33q-62 0 -109.5 12.5t-98.5 40.5l34 56q45 -26 87.5 -38t90.5 -12t75.5 17t27.5 43q0 15 -5.5 28t-23 25.5t-50.5 25.5t-89 28q-112 29 -158.5 66t-46.5 87q0 48 43 82.5t124 40.5
v6q-55 17 -79.5 46t-24.5 69q0 55 49 88t132 33q31 0 58 -3t52 -9.5t49 -16.5t50 -24l-34 -56q-45 26 -87.5 38t-91.5 12q-48 0 -75 -17t-27 -43q0 -15 5 -28t22.5 -25.5t51 -25.5t89.5 -28q112 -29 158.5 -66t46.5 -87zM477 341q0 32 -30 57t-103 47q-29 8 -55 12t-58 4
q-54 0 -89.5 -21.5t-35.5 -60.5q0 -32 29.5 -57t103.5 -47q29 -8 55 -12t58 -4q54 0 89.5 21.5t35.5 60.5z" />
    <glyph glyph-name="bullet" unicode="&#x2022;" horiz-adv-x="377" 
d="M324 373q0 -29 -10.5 -53.5t-28.5 -43t-43 -29t-53 -10.5q-29 0 -53.5 10.5t-43 29t-29 43t-10.5 53.5q0 28 10.5 53t29 43.5t43 29t53.5 10.5q28 0 53 -10.5t43 -29t28.5 -43.5t10.5 -53z" />
    <glyph glyph-name="paragraph" unicode="&#xb6;" horiz-adv-x="534" 
d="M404 0v674h-97v-674h-51v350q-109 2 -166.5 50t-57.5 133q0 91 61 139t166 48h196v-720h-51z" />
    <glyph glyph-name="germandbls" unicode="&#xdf;" horiz-adv-x="585" 
d="M547 186q0 -45 -14 -81t-39 -61t-60 -38.5t-77 -13.5q-47 0 -77 11.5t-53 29.5l21 55q20 -17 41.5 -26.5t56.5 -9.5q48 0 81.5 34.5t33.5 98.5q0 86 -56.5 137t-156.5 62v56q76 4 113 44t37 96q0 51 -31 84.5t-90 33.5q-60 0 -92.5 -40t-32.5 -113v-545h-87v535
q0 107 57.5 165.5t157.5 58.5q48 0 86 -13t64 -36.5t39.5 -55t13.5 -68.5q0 -66 -35 -107.5t-87 -59.5v-7q36 -10 69.5 -28.5t59.5 -46t41.5 -65.5t15.5 -86z" />
    <glyph glyph-name="registered" unicode="&#xae;" horiz-adv-x="523" 
d="M485 504q0 -48 -17 -88.5t-47 -70.5t-71 -47t-89 -17q-47 0 -87.5 17t-70.5 46.5t-47 70.5t-17 89q0 47 17 88t47 71t70.5 47t88.5 17q47 0 88 -17t71 -47t47 -70.5t17 -88.5zM458 504q0 42 -15 78.5t-41 63.5t-62 42t-79 15q-42 0 -78.5 -15t-62.5 -41.5t-41 -63
t-15 -79.5t15 -79.5t41.5 -63.5t62.5 -42t79 -15q42 0 78 15t62.5 42t41 63.5t14.5 79.5zM318 381l-66 104h-24v-104h-47v252h86q41 0 65 -18.5t24 -55.5q0 -27 -15.5 -44.5t-41.5 -24.5l70 -109h-51zM311 559q0 39 -47 39h-38v-78h38q47 0 47 39z" />
    <glyph glyph-name="copyright" unicode="&#xa9;" horiz-adv-x="831" 
d="M788 360q0 -79 -28.5 -147t-79 -118t-118.5 -78.5t-147 -28.5t-147 28.5t-117.5 78t-78 117.5t-28.5 148q0 79 28.5 147t78.5 118t118 78.5t147 28.5t147 -28.5t118 -78t78.5 -118t28.5 -147.5zM749 360q0 72 -25 134t-69.5 107t-106 71t-133.5 26t-133 -25.5t-105.5 -71
t-69.5 -107.5t-25 -134t25 -134t69.5 -107t106 -71t133.5 -26t133.5 25.5t105.5 71t69 107.5t25 134zM557 288q-14 -63 -48.5 -98.5t-95.5 -35.5q-70 0 -111.5 54t-41.5 150v13q0 96 41 150t113 54q61 0 94.5 -33.5t46.5 -92.5l-62 -17q-11 46 -29 68t-50 22
q-45 0 -65.5 -41t-20.5 -104v-23q0 -63 20.5 -104.5t65.5 -41.5q34 0 53 24t30 72l60 -16v0z" />
    <glyph glyph-name="trademark" unicode="&#x2122;" horiz-adv-x="780" 
d="M666 381v288h-2l-97 -288h-56l-97 288h-2v-288h-51v339h85l92 -279h3l92 279h84v-339h-51zM194 675v-294h-55v294h-106v45h267v-45h-106z" />
    <glyph glyph-name="acute" unicode="&#xb4;" 
d="M221 592h-58l88 151h110z" />
    <glyph glyph-name="dieresis" unicode="&#xa8;" 
d="M299 592v97h85v-97h-85zM116 592v97h85v-97h-85z" />
    <glyph glyph-name="notequal" unicode="&#x2260;" horiz-adv-x="636" 
d="M648 681q-16 8 -34.5 12.5t-44.5 4.5q-70 0 -70 -82v-99h129v-62h-129v-455h-86v455h-209v-455h-87v455h-101v62h101v96q0 73 38 109.5t105 36.5q32 0 53 -3.5t39 -8.5v-66q-16 8 -34.5 12.5t-44.5 4.5q-69 0 -69 -82v-99h209v96q0 73 38 109.5t104 36.5q32 0 53 -3.5
t40 -8.5v-66v0z" />
    <glyph glyph-name="AE" unicode="&#xc6;" horiz-adv-x="927" 
d="M463 0v185h-264l-94 -185h-95l373 720h495v-73h-325v-236h262v-71h-262v-267h337v-73h-427zM463 648h-28l-206 -398h234v398z" />
    <glyph glyph-name="Oslash" unicode="&#xd8;" horiz-adv-x="624" 
d="M575 350q0 -84 -18 -151t-52 -114t-83 -72t-110 -25q-80 0 -138 44l-64 -127h-61l84 161q-42 46 -63 117.5t-21 164.5v22q0 84 18 151t52 114t83 72t110 25q81 0 137 -44l65 129h61l-85 -162q41 -47 63 -118t22 -165v-22v0zM415 618q-42 45 -103 45q-43 0 -75 -20.5
t-53.5 -58t-32 -89.5t-10.5 -115v-38q0 -57 9.5 -106.5t31.5 -84.5l233 467v0zM483 378q0 57 -10 107t-31 85l-234 -468q42 -45 104 -45q43 0 75 20.5t53.5 57.5t32 89.5t10.5 115.5v38z" />
    <glyph glyph-name="infinity" unicode="&#x221e;" horiz-adv-x="869" 
d="M702 630v93h101v-93h-101zM648 681q-16 8 -34.5 12.5t-44.5 4.5q-70 0 -70 -82v-99h129v-62h-129v-455h-86v455h-209v-455h-87v455h-101v62h101v96q0 73 38 109.5t105 36.5q32 0 53 -3.5t39 -8.5v-66q-16 8 -34.5 12.5t-44.5 4.5q-69 0 -69 -82v-99h209v96q0 73 38 109.5
t104 36.5q32 0 53 -3.5t40 -8.5v-66v0zM709 0v521h87v-521h-87z" />
    <glyph glyph-name="plusminus" unicode="&#xb1;" horiz-adv-x="869" 
d="M709 0v737l87 23v-760h-87zM648 681q-16 8 -34.5 12.5t-44.5 4.5q-70 0 -70 -82v-99h129v-62h-129v-455h-86v455h-209v-455h-87v455h-101v62h101v96q0 73 38 109.5t105 36.5q32 0 53 -3.5t39 -8.5v-66q-16 8 -34.5 12.5t-44.5 4.5q-69 0 -69 -82v-99h209v96
q0 73 38 109.5t104 36.5q32 0 53 -3.5t40 -8.5v-66v0z" />
    <glyph glyph-name="lessequal" unicode="&#x2264;" 
d="M436 100l-169 84l27 -184h-88l27 184l-169 -84l-29 82l185 33l-138 142v6l138 142l-185 33l29 82l169 -84l-27 184h88l-27 -184l169 84l29 -82l-185 -33l138 -142v-6l-138 -142l185 -33zM250 493l-84 -133l84 -133l84 133z" />
    <glyph glyph-name="greaterequal" unicode="&#x2265;" 
d="M436 100l-169 84l27 -184h-88l27 184l-169 -84l-29 82l185 33l-138 142v6l138 142l-185 33l29 82l169 -84l-27 184h88l-27 -184l169 84l29 -82l-185 -33l138 -142v-6l-138 -142l185 -33zM250 493l-84 -133l84 -133l84 133z" />
    <glyph glyph-name="yen" unicode="&#xa5;" horiz-adv-x="618" 
d="M412 388h138v-52h-166l-31 -56v-77h197v-53h-197v-150h-88v150h-198v53h198v75l-32 58h-166v52h138l-186 332h100l193 -370l193 370h93z" />
    <glyph glyph-name="mu" unicode="&#xb5;" 
d="M436 100l-169 84l27 -184h-88l27 184l-169 -84l-29 82l185 33l-138 142v6l138 142l-185 33l29 82l169 -84l-27 184h88l-27 -184l169 84l29 -82l-185 -33l138 -142v-6l-138 -142l185 -33zM250 493l-84 -133l84 -133l84 133z" />
    <glyph glyph-name="partialdiff" unicode="&#x2202;" 
d="M436 100l-169 84l27 -184h-88l27 184l-169 -84l-29 82l185 33l-138 142v6l138 142l-185 33l29 82l169 -84l-27 184h88l-27 -184l169 84l29 -82l-185 -33l138 -142v-6l-138 -142l185 -33zM250 493l-84 -133l84 -133l84 133z" />
    <glyph glyph-name="summation" unicode="&#x2211;" 
d="M436 100l-169 84l27 -184h-88l27 184l-169 -84l-29 82l185 33l-138 142v6l138 142l-185 33l29 82l169 -84l-27 184h88l-27 -184l169 84l29 -82l-185 -33l138 -142v-6l-138 -142l185 -33zM250 493l-84 -133l84 -133l84 133z" />
    <glyph glyph-name="product" unicode="&#x220f;" horiz-adv-x="831" 
d="M788 360q0 -79 -28.5 -147t-79 -118t-118.5 -78.5t-147 -28.5t-147 28.5t-117.5 78t-78 117.5t-28.5 148q0 79 28.5 147t78.5 118t118 78.5t147 28.5t147 -28.5t118 -78t78.5 -118t28.5 -147.5zM749 360q0 72 -25 134t-69.5 107t-106 71t-133.5 26t-133 -25.5t-105.5 -71
t-69.5 -107.5t-25 -134t25 -134t69.5 -107t106 -71t133.5 -26t133.5 25.5t105.5 71t69 107.5t25 134zM511 160l-109 173h-48v-173h-66v411h137q66 0 104 -29.5t38 -88.5q0 -47 -26 -74.5t-71 -37.5l115 -181h-74zM500 452q0 68 -81 68h-66v-136h67q80 0 80 68z" />
    <glyph glyph-name="pi" unicode="&#x3c0;" horiz-adv-x="831" 
d="M788 360q0 -79 -28.5 -147t-79 -118t-118.5 -78.5t-147 -28.5t-147 28.5t-117.5 78t-78 117.5t-28.5 148q0 79 28.5 147t78.5 118t118 78.5t147 28.5t147 -28.5t118 -78t78.5 -118t28.5 -147.5zM749 360q0 72 -25 134t-69.5 107t-106 71t-133.5 26t-133 -25.5t-105.5 -71
t-69.5 -107.5t-25 -134t25 -134t69.5 -107t106 -71t133.5 -26t133.5 25.5t105.5 71t69 107.5t25 134zM578 446q0 -60 -37.5 -92.5t-109.5 -32.5h-60v-164h-67v410h131q67 0 105 -31t38 -90zM512 445q0 33 -20.5 51.5t-62.5 18.5h-60v-142h62q39 0 60 18.5t21 53.5z" />
    <glyph glyph-name="integral" unicode="&#x222b;" 
d="M436 100l-169 84l27 -184h-88l27 184l-169 -84l-29 82l185 33l-138 142v6l138 142l-185 33l29 82l169 -84l-27 184h88l-27 -184l169 84l29 -82l-185 -33l138 -142v-6l-138 -142l185 -33zM250 493l-84 -133l84 -133l84 133z" />
    <glyph glyph-name="ordfeminine" unicode="&#xaa;" horiz-adv-x="384" 
d="M346 370q-43 -2 -66 13t-29 44q-47 -59 -108 -59q-40 0 -68.5 23.5t-28.5 70.5q0 53 50.5 85t152.5 33v36q0 62 -53 62q-25 0 -50 -8t-56 -26l-18 42q32 17 63.5 28t70.5 11q55 0 79.5 -25.5t24.5 -81.5v-174q0 -19 8 -30t28 -13v-31v0zM49 254v42h285v-42h-285zM249 550
q-77 -1 -109.5 -25t-32.5 -57q0 -27 15.5 -42t40.5 -15q48 0 86 49v90z" />
    <glyph glyph-name="ordmasculine" unicode="&#xba;" horiz-adv-x="384" 
d="M337 546q0 -82 -39.5 -131.5t-105.5 -49.5t-105 49.5t-39 131.5q0 83 39 132t105 49t105.5 -49.5t39.5 -131.5zM55 254v42h275v-42h-275zM272 545q0 65 -20.5 101.5t-59.5 36.5q-38 0 -59 -36t-21 -100t21 -100.5t59 -36.5q39 0 59.5 36t20.5 99z" />
    <glyph glyph-name="Omega" unicode="&#x2126;" horiz-adv-x="600" 
d="M44 315v80h512v-80h-512z" />
    <glyph glyph-name="ae" unicode="&#xe6;" horiz-adv-x="763" 
d="M544 -9q-58 0 -103 26.5t-73 77.5q-42 -49 -89.5 -75.5t-102.5 -26.5q-64 0 -105.5 35t-41.5 103q0 79 76 127t227 50v64q0 45 -22 68.5t-64 23.5q-33 0 -69.5 -12.5t-82.5 -38.5l-26 56q47 25 91 41t98 16q59 0 88 -27.5t38 -73.5h7q22 50 57.5 78t86.5 28
q45 0 80.5 -19t59.5 -54t37 -84.5t13 -110.5v-21h-309q2 -96 39.5 -142.5t100.5 -46.5q38 0 71 14.5t67 42.5l29 -52q-39 -32 -80 -49.5t-98 -17.5zM641 287q-9 188 -109 188q-54 0 -83.5 -49t-33.5 -139h226zM204 49q36 0 74.5 20.5t72.5 62.5q-19 51 -19 120v15
q-59 0 -101 -10.5t-69 -27.5t-39.5 -40t-12.5 -49q0 -45 26 -68t68 -23z" />
    <glyph glyph-name="oslash" unicode="&#xf8;" horiz-adv-x="501" 
d="M112 43q-35 35 -54 88.5t-19 122.5v11q0 59 14.5 108t42 84t67 54.5t88.5 19.5q55 0 100 -28l56 113h54l-73 -139q36 -35 54.5 -88.5t18.5 -121.5v-11q0 -59 -14.5 -108t-41.5 -84t-66 -54.5t-88 -19.5q-29 0 -53.5 7t-46.5 20l-57 -112h-55zM323 447q-29 29 -72 29
q-62 0 -96 -55t-34 -154v-12q0 -43 8 -80.5t25 -63.5zM251 44q60 0 94.5 55t34.5 155v11q0 44 -8.5 80.5t-25.5 62.5l-169 -335q31 -29 74 -29z" />
    <glyph glyph-name="questiondown" unicode="&#xbf;" horiz-adv-x="456" 
d="M306 670q0 -24 -16 -40t-40 -16t-40.5 16t-16.5 40t16.5 40.5t40.5 16.5t40 -16.5t16 -40.5zM437 137q-29 -71 -78.5 -110t-131.5 -39q-44 0 -78.5 12.5t-58.5 35t-36.5 53t-12.5 65.5q0 30 6 53t18.5 44t32.5 41.5t48 44.5q21 19 35 35.5t22.5 35t12.5 42t5 56.5h56
q2 -43 0 -73t-10.5 -54t-24 -44t-39.5 -43q-38 -35 -55 -65.5t-17 -68.5q0 -44 26 -72t74 -28q50 0 81 26t57 84l68 -31v0z" />
    <glyph glyph-name="exclamdown" unicode="&#xa1;" horiz-adv-x="252" 
d="M182 670q0 -24 -16 -40t-40 -16t-40.5 16t-16.5 40t16.5 40.5t40.5 16.5t40 -16.5t16 -40.5zM72 0l30 506h48l30 -506h-108z" />
    <glyph glyph-name="logicalnot" unicode="&#xac;" horiz-adv-x="264" 
d="M85 0v720h94v-720h-94z" />
    <glyph glyph-name="radical" unicode="&#x221a;" horiz-adv-x="572" 
d="M287 -3h-97l-155 343h92l112 -267l210 647h96z" />
    <glyph glyph-name="florin" unicode="&#x192;" horiz-adv-x="459" 
d="M434 648q-20 7 -38.5 9.5t-43.5 2.5q-32 0 -53.5 -19t-29.5 -59l-21 -120h127l-11 -64h-127l-82 -466q-12 -68 -50 -95t-93 -27q-23 0 -43.5 3t-35.5 7l11 62q14 -3 28 -5.5t29 -2.5q26 0 44 15.5t24 50.5l81 458h-101l10 64h102l22 126q13 74 54 106t105 32
q32 0 57.5 -4t46.5 -10z" />
    <glyph glyph-name="approxequal" unicode="&#x2248;" horiz-adv-x="600" 
d="M481 119l-181 186l-181 -186l-55 55l186 181l-186 181l55 55l181 -186l181 186l55 -55l-186 -181l186 -181z" />
    <glyph glyph-name="Delta" unicode="&#x2206;" 
d="M436 100l-169 84l27 -184h-88l27 184l-169 -84l-29 82l185 33l-138 142v6l138 142l-185 33l29 82l169 -84l-27 184h88l-27 -184l169 84l29 -82l-185 -33l138 -142v-6l-138 -142l185 -33zM250 493l-84 -133l84 -133l84 133z" />
    <glyph glyph-name="guillemotleft" unicode="&#xab;" horiz-adv-x="469" 
d="M382 76l-158 184l158 185h54l-117 -185l117 -184h-54zM183 76l-158 184l158 185h55l-118 -185l118 -184h-55z" />
    <glyph glyph-name="guillemotright" unicode="&#xbb;" horiz-adv-x="469" 
d="M285 76h-54l117 184l-117 185h54l158 -185zM87 76h-55l118 184l-118 185h55l158 -185z" />
    <glyph glyph-name="ellipsis" unicode="&#x2026;" horiz-adv-x="620" 
d="M577 48q0 -23 -15.5 -39t-39.5 -16q-23 0 -38.5 16t-15.5 39q0 24 15.5 39.5t38.5 15.5q24 0 39.5 -15.5t15.5 -39.5zM365 48q0 -23 -15.5 -39t-39.5 -16q-23 0 -39 16t-16 39q0 24 16 39.5t39 15.5q24 0 39.5 -15.5t15.5 -39.5zM153 48q0 -23 -15.5 -39t-39.5 -16
q-23 0 -39 16t-16 39q0 24 16 39.5t39 15.5q24 0 39.5 -15.5t15.5 -39.5z" />
    <glyph glyph-name="nonbreakingspace" unicode="&#xa0;" horiz-adv-x="127" 
 />
    <glyph glyph-name="Agrave" unicode="&#xc0;" horiz-adv-x="671" 
d="M551 0l-61 185h-312l-61 -185h-92l248 723h125l248 -723h-95zM338 652h-8l-134 -402h276zM310 771l-140 151h110l88 -151h-58z" />
    <glyph glyph-name="Atilde" unicode="&#xc3;" horiz-adv-x="671" 
d="M551 0l-61 185h-312l-61 -185h-92l248 723h125l248 -723h-95zM338 652h-8l-134 -402h276zM494 889q2 -61 -18.5 -89.5t-64.5 -28.5q-21 0 -41.5 8.5t-39 19t-35 19t-30.5 8.5q-20 0 -29.5 -12t-10.5 -41h-47q-2 61 18.5 89.5t64.5 28.5q21 0 41.5 -8.5t39 -19t35 -19
t30.5 -8.5q20 0 29.5 12t10.5 41h47v0z" />
    <glyph glyph-name="Otilde" unicode="&#xd5;" horiz-adv-x="624" 
d="M575 350q0 -84 -18 -151t-52 -114t-83 -72t-110 -25t-110 25t-83 71.5t-52 113t-18 150.5v22q0 84 18 151t52 114t83 72t110 25t110 -25t83 -71.5t52 -113t18 -150.5v-22v0zM479 378q0 62 -10 114t-31 89.5t-52.5 58t-73.5 20.5t-73.5 -20.5t-52.5 -57.5t-31 -88.5
t-10 -113.5v-38q0 -63 10 -114.5t31 -89t52.5 -58t73.5 -20.5t73.5 20.5t52.5 57.5t31 88.5t10 113.5v38zM468 899q2 -61 -18.5 -89.5t-64.5 -28.5q-21 0 -41.5 8.5t-39 19t-35 19t-30.5 8.5q-20 0 -29.5 -12t-10.5 -41h-47q-2 61 18.5 89.5t64.5 28.5q21 0 41.5 -8.5
t39 -19t35 -19t30.5 -8.5q20 0 29.5 12t10.5 41h47v0z" />
    <glyph glyph-name="OE" unicode="&#x152;" horiz-adv-x="892" 
d="M362 0q-152 0 -232.5 91.5t-80.5 259.5v17q0 169 82.5 260.5t234.5 91.5h477v-72h-318v-237h255v-71h-255v-268h330v-72h-493zM434 649h-69q-104 0 -163 -69.5t-59 -203.5v-30q0 -136 58 -205.5t168 -69.5h65v578z" />
    <glyph glyph-name="oe" unicode="&#x153;" horiz-adv-x="808" 
d="M248 -10q-48 0 -86.5 19t-66 53.5t-42 83.5t-14.5 108v11q0 59 14.5 108t41.5 84t65.5 54.5t85.5 19.5q66 0 108.5 -37t60.5 -100h8q18 63 58 100t100 37q43 0 78 -19t59.5 -54t37.5 -84.5t13 -110.5v-21h-310q2 -96 40 -142.5t101 -46.5q38 0 71 14.5t66 42.5l30 -52
q-39 -32 -79 -49.5t-94 -17.5q-69 0 -110 34t-61 100h-8q-18 -60 -59.5 -97.5t-107.5 -37.5zM686 287q-9 188 -110 188q-53 0 -83 -49t-33 -139h226zM251 47q60 0 92 55t32 152v11q0 98 -32 153t-92 55q-61 0 -93 -54.5t-32 -151.5v-12q0 -97 32 -152.5t93 -55.5z" />
    <glyph glyph-name="endash" unicode="&#x2013;" 
d="M39 245v75h422v-75h-422z" />
    <glyph glyph-name="emdash" unicode="&#x2014;" horiz-adv-x="1000" 
d="M39 245v75h922v-75h-922z" />
    <glyph glyph-name="quotedblleft" unicode="&#x201c;" horiz-adv-x="360" 
d="M270 489l-78 231h97l32 -231h-51zM107 489l-79 231h97l33 -231h-51z" />
    <glyph glyph-name="quotedblright" unicode="&#x201d;" horiz-adv-x="360" 
d="M253 489h-50l32 231h96zM90 489h-51l32 231h97z" />
    <glyph glyph-name="quoteleft" unicode="&#x2018;" horiz-adv-x="198" 
d="M107 489l-79 231h99l32 -231h-52z" />
    <glyph glyph-name="quoteright" unicode="&#x2019;" horiz-adv-x="198" 
d="M91 489h-52l32 231h98z" />
    <glyph glyph-name="divide" unicode="&#xf7;" horiz-adv-x="600" 
d="M359 564q0 -26 -16.5 -42.5t-42.5 -16.5t-42.5 16.5t-16.5 42.5q0 25 16.5 42t42.5 17t42.5 -17t16.5 -42zM44 317v76h512v-76h-512zM359 146q0 -25 -16.5 -42t-42.5 -17t-42.5 17t-16.5 42q0 26 16.5 42.5t42.5 16.5t42.5 -16.5t16.5 -42.5z" />
    <glyph glyph-name="lozenge" unicode="&#x25ca;" 
d="M436 100l-169 84l27 -184h-88l27 184l-169 -84l-29 82l185 33l-138 142v6l138 142l-185 33l29 82l169 -84l-27 184h88l-27 -184l169 84l29 -82l-185 -33l138 -142v-6l-138 -142l185 -33zM250 493l-84 -133l84 -133l84 133z" />
    <glyph glyph-name="ydieresis" unicode="&#xff;" horiz-adv-x="480" 
d="M269 -60q-12 -38 -27.5 -63t-34.5 -40.5t-42.5 -22t-52.5 -6.5q-28 0 -48 5t-39 13v64h23q10 -16 23 -24t36 -8q28 0 46.5 18t32.5 54l16 47l-179 544h90l129 -439l130 439h85zM290 592v97h85v-97h-85zM107 592v97h85v-97h-85z" />
    <glyph glyph-name="Ydieresis" unicode="&#x178;" horiz-adv-x="623" 
d="M358 280v-280h-94v278l-249 442h101l199 -361l199 361h94zM362 761v97h85v-97h-85zM179 761v97h85v-97h-85z" />
    <glyph glyph-name="fraction" unicode="&#x2044;" horiz-adv-x="378" 
d="M40 -15h-83l380 750h83z" />
    <glyph glyph-name="currency" unicode="&#xa4;" horiz-adv-x="587" 
d="M551 179q-17 -43 -38.5 -78.5t-50.5 -60.5t-66.5 -38.5t-85.5 -13.5q-60 0 -108.5 25t-82 71.5t-52 113.5t-18.5 151v22q0 84 18 150.5t52 113.5t83 72t110 25q92 0 147 -45t87 -133l-72 -38q-26 72 -63 108.5t-97 36.5q-72 0 -114 -55.5t-53 -148.5h220v-51h-224
q-1 -9 -1.5 -18t-0.5 -19v-19q0 -25 3 -46h223v-51h-219q13 -87 55.5 -140.5t114.5 -53.5q60 0 99.5 39.5t65.5 114.5l68 -34v0z" />
    <glyph glyph-name="guilsinglleft" unicode="&#x2039;" horiz-adv-x="271" 
d="M183 76l-158 184l158 185h55l-118 -185l118 -184h-55z" />
    <glyph glyph-name="guilsinglright" unicode="&#x203a;" horiz-adv-x="271" 
d="M87 76h-55l118 184l-118 185h55l158 -185z" />
    <glyph glyph-name="fi" unicode="&#xfb01;" horiz-adv-x="574" 
d="M406 630v93h101v-93h-101zM352 681q-16 8 -34.5 12.5t-44.5 4.5q-69 0 -69 -82v-99h128v-62h-128v-455h-87v455h-101v62h101v96q0 73 38 109.5t105 36.5q32 0 53 -3.5t39 -8.5v-66v0zM413 0v521h87v-521h-87z" />
    <glyph glyph-name="fl" unicode="&#xfb02;" horiz-adv-x="574" 
d="M413 0v737l87 23v-760h-87zM352 681q-16 8 -34.5 12.5t-44.5 4.5q-69 0 -69 -82v-99h128v-62h-128v-455h-87v455h-101v62h101v96q0 73 38 109.5t105 36.5q32 0 53 -3.5t39 -8.5v-66v0z" />
    <glyph glyph-name="daggerdbl" unicode="&#x2021;" horiz-adv-x="475" 
d="M262 191l23 -191h-96l24 191l-168 -22v73l168 -21l-22 139l22 139l-168 -21v73l168 -22l-24 191h96l-23 -191l167 22v-73l-167 21l21 -139l-21 -139l167 21v-73z" />
    <glyph glyph-name="periodcentered" unicode="&#xb7;" horiz-adv-x="198" 
d="M158 278q0 -26 -16.5 -42.5t-42.5 -16.5t-42.5 16.5t-16.5 42.5t16.5 42.5t42.5 16.5t42.5 -16.5t16.5 -42.5z" />
    <glyph glyph-name="quotesinglbase" unicode="&#x201a;" horiz-adv-x="198" 
d="M82 -118h-52l32 231h98z" />
    <glyph glyph-name="quotedblbase" unicode="&#x201e;" horiz-adv-x="360" 
d="M244 -118h-50l31 231h97zM81 -118h-51l32 231h97z" />
    <glyph glyph-name="perthousand" unicode="&#x2030;" horiz-adv-x="1246" 
d="M369 530q0 -45 -13 -81.5t-36 -62t-54 -39.5t-67 -14t-66.5 13.5t-53 39t-35 62t-12.5 82.5q0 45 13 81.5t35.5 62t53.5 39.5t67 14t66.5 -13.5t53 -39t35.5 -62t13 -82.5zM450 350l-203 -350h-80l238 370l203 350h79zM1214 190q0 -45 -13 -81.5t-35.5 -62t-53.5 -39.5
t-67 -14t-66.5 13.5t-53 39t-35 62t-12.5 82.5q0 45 13 81.5t35.5 62t53.5 39.5t67 14t66.5 -13.5t53 -39t35 -62t12.5 -82.5zM823 190q0 -45 -13 -81.5t-35.5 -62t-53.5 -39.5t-67 -14t-67 13.5t-53.5 39t-35 62t-12.5 82.5q0 45 13 81.5t35.5 62t54 39.5t67.5 14
t66.5 -13.5t53 -39t35 -62t12.5 -82.5zM297 529q0 64 -25 102.5t-72 38.5q-46 0 -71.5 -37.5t-25.5 -101.5q0 -65 25.5 -103t71.5 -38t71.5 37t25.5 102zM1143 189q0 65 -25.5 103t-71.5 38q-45 0 -71 -37t-26 -102q0 -64 25.5 -102.5t71.5 -38.5t71.5 37.5t25.5 101.5z
M752 189q0 65 -25.5 103t-71.5 38q-47 0 -72.5 -37t-25.5 -102q0 -64 25.5 -102.5t72.5 -38.5q45 0 71 37.5t26 101.5z" />
    <glyph glyph-name="Acircumflex" unicode="&#xc2;" horiz-adv-x="671" 
d="M551 0l-61 185h-312l-61 -185h-92l248 723h125l248 -723h-95zM338 652h-8l-134 -402h276zM446 754l-111 100l-111 -100h-46l122 160h72l122 -160h-48z" />
    <glyph glyph-name="Ecircumflex" unicode="&#xca;" horiz-adv-x="558" 
d="M78 0v720h431v-73h-339v-236h276v-71h-276v-267h351v-73h-443zM398 768l-111 100l-111 -100h-46l122 160h72l122 -160h-48z" />
    <glyph glyph-name="Aacute" unicode="&#xc1;" horiz-adv-x="671" 
d="M551 0l-61 185h-312l-61 -185h-92l248 723h125l248 -723h-95zM338 652h-8l-134 -402h276zM362 771h-58l88 151h110z" />
    <glyph glyph-name="Edieresis" unicode="&#xcb;" horiz-adv-x="558" 
d="M78 0v720h431v-73h-339v-236h276v-71h-276v-267h351v-73h-443zM337 771v97h85v-97h-85zM154 771v97h85v-97h-85z" />
    <glyph glyph-name="Egrave" unicode="&#xc8;" horiz-adv-x="558" 
d="M78 0v720h431v-73h-339v-236h276v-71h-276v-267h351v-73h-443zM286 771l-140 151h110l88 -151h-58z" />
    <glyph glyph-name="Iacute" unicode="&#xcd;" horiz-adv-x="399" 
d="M51 0v44h102v632h-102v44h297v-44h-102v-632h102v-44h-297zM214 771h-58l88 151h110z" />
    <glyph glyph-name="Icircumflex" unicode="&#xce;" horiz-adv-x="399" 
d="M51 0v44h102v632h-102v44h297v-44h-102v-632h102v-44h-297zM310 768l-111 100l-111 -100h-46l122 160h72l122 -160h-48z" />
    <glyph glyph-name="Idieresis" unicode="&#xcf;" horiz-adv-x="399" 
d="M51 0v44h102v632h-102v44h297v-44h-102v-632h102v-44h-297zM249 771v97h85v-97h-85zM66 771v97h85v-97h-85z" />
    <glyph glyph-name="Igrave" unicode="&#xcc;" horiz-adv-x="399" 
d="M51 0v44h102v632h-102v44h297v-44h-102v-632h102v-44h-297zM187 771l-140 151h110l88 -151h-58z" />
    <glyph glyph-name="Oacute" unicode="&#xd3;" horiz-adv-x="624" 
d="M575 350q0 -84 -18 -151t-52 -114t-83 -72t-110 -25t-110 25t-83 71.5t-52 113t-18 150.5v22q0 84 18 151t52 114t83 72t110 25t110 -25t83 -71.5t52 -113t18 -150.5v-22v0zM479 378q0 62 -10 114t-31 89.5t-52.5 58t-73.5 20.5t-73.5 -20.5t-52.5 -57.5t-31 -88.5
t-10 -113.5v-38q0 -63 10 -114.5t31 -89t52.5 -58t73.5 -20.5t73.5 20.5t52.5 57.5t31 88.5t10 113.5v38zM324 781h-58l88 151h110z" />
    <glyph glyph-name="Ocircumflex" unicode="&#xd4;" horiz-adv-x="624" 
d="M575 350q0 -84 -18 -151t-52 -114t-83 -72t-110 -25t-110 25t-83 71.5t-52 113t-18 150.5v22q0 84 18 151t52 114t83 72t110 25t110 -25t83 -71.5t52 -113t18 -150.5v-22v0zM479 378q0 62 -10 114t-31 89.5t-52.5 58t-73.5 20.5t-73.5 -20.5t-52.5 -57.5t-31 -88.5
t-10 -113.5v-38q0 -63 10 -114.5t31 -89t52.5 -58t73.5 -20.5t73.5 20.5t52.5 57.5t31 88.5t10 113.5v38zM422 768l-111 100l-111 -100h-46l122 160h72l122 -160h-48z" />
    <glyph glyph-name="apple" unicode="&#xf8ff;" 
d="M436 100l-169 84l27 -184h-88l27 184l-169 -84l-29 82l185 33l-138 142v6l138 142l-185 33l29 82l169 -84l-27 184h88l-27 -184l169 84l29 -82l-185 -33l138 -142v-6l-138 -142l185 -33zM250 493l-84 -133l84 -133l84 133z" />
    <glyph glyph-name="Ograve" unicode="&#xd2;" horiz-adv-x="624" 
d="M575 350q0 -84 -18 -151t-52 -114t-83 -72t-110 -25t-110 25t-83 71.5t-52 113t-18 150.5v22q0 84 18 151t52 114t83 72t110 25t110 -25t83 -71.5t52 -113t18 -150.5v-22v0zM479 378q0 62 -10 114t-31 89.5t-52.5 58t-73.5 20.5t-73.5 -20.5t-52.5 -57.5t-31 -88.5
t-10 -113.5v-38q0 -63 10 -114.5t31 -89t52.5 -58t73.5 -20.5t73.5 20.5t52.5 57.5t31 88.5t10 113.5v38zM300 781l-140 151h110l88 -151h-58z" />
    <glyph glyph-name="Uacute" unicode="&#xda;" horiz-adv-x="627" 
d="M555 252q0 -70 -18 -120t-50.5 -82t-77 -47t-96.5 -15q-53 0 -97 15t-76 47t-50 82t-18 120v468h93v-469q0 -50 11 -86t31 -59t48 -33.5t62 -10.5t61.5 10t47 32.5t30.5 58t11 85.5v472h88v-468v0zM330 764h-58l88 151h110z" />
    <glyph glyph-name="Ucircumflex" unicode="&#xdb;" horiz-adv-x="627" 
d="M555 252q0 -70 -18 -120t-50.5 -82t-77 -47t-96.5 -15q-53 0 -97 15t-76 47t-50 82t-18 120v468h93v-469q0 -50 11 -86t31 -59t48 -33.5t62 -10.5t61.5 10t47 32.5t30.5 58t11 85.5v472h88v-468v0zM426 768l-111 100l-111 -100h-46l122 160h72l122 -160h-48z" />
    <glyph glyph-name="Ugrave" unicode="&#xd9;" horiz-adv-x="627" 
d="M555 252q0 -70 -18 -120t-50.5 -82t-77 -47t-96.5 -15q-53 0 -97 15t-76 47t-50 82t-18 120v468h93v-469q0 -50 11 -86t31 -59t48 -33.5t62 -10.5t61.5 10t47 32.5t30.5 58t11 85.5v472h88v-468v0zM300 764l-140 151h110l88 -151h-58z" />
    <glyph glyph-name="dotlessi" unicode="&#x131;" horiz-adv-x="233" 
d="M73 0v521h87v-521h-87z" />
    <glyph glyph-name="circumflex" unicode="&#x2c6;" 
d="M360 589l-111 100l-111 -100h-46l122 160h72l122 -160h-48z" />
    <glyph glyph-name="tilde" unicode="&#x2dc;" 
d="M408 710q2 -61 -18.5 -89.5t-64.5 -28.5q-21 0 -41.5 8.5t-39 19t-35 19t-30.5 8.5q-20 0 -29.5 -12t-10.5 -41h-47q-2 61 18.5 89.5t64.5 28.5q21 0 41.5 -8.5t39 -19t35 -19t30.5 -8.5q20 0 29.5 12t10.5 41h47v0z" />
    <glyph glyph-name="macron" unicode="&#xaf;" 
d="M108 629v62h284v-62h-284z" />
    <glyph glyph-name="breve" unicode="&#x2d8;" 
d="M401 752q-4 -77 -41.5 -120t-109.5 -43t-109.5 43t-41.5 120h45q13 -104 106 -104t106 104h45v0z" />
    <glyph glyph-name="dotaccent" unicode="&#x2d9;" 
d="M206 592v97h88v-97h-88z" />
    <glyph glyph-name="ring" unicode="&#x2da;" 
d="M353 678q0 -41 -28 -67t-75 -26t-75 26t-28 67t28 66.5t75 25.5t75 -25.5t28 -66.5zM304 678q0 25 -15.5 41t-38.5 16t-38.5 -16t-15.5 -41t15.5 -41t38.5 -16t38.5 16t15.5 41z" />
    <glyph glyph-name="cedilla" unicode="&#xb8;" 
d="M378 -101q0 -94 -223 -90v26q89 1 124 15t35 37q0 28 -37 28q-30 0 -55 -12l-25 16l53 81h39l-32 -52q21 8 47 8q33 0 53.5 -14t20.5 -43z" />
    <glyph glyph-name="hungarumlaut" unicode="&#x2dd;" 
d="M302 592h-55l88 151h107zM119 592h-54l88 151h107z" />
    <glyph glyph-name="ogonek" unicode="&#x2db;" 
d="M376 -156q-31 -17 -62 -25.5t-64 -8.5q-47 0 -74 20t-27 55q0 33 26 62.5t68 52.5h45q-72 -51 -72 -103q0 -20 14.5 -32.5t38.5 -12.5t46.5 5t48.5 15l12 -28v0z" />
    <glyph glyph-name="caron" unicode="&#x2c7;" 
d="M286 592h-72l-122 160h48l111 -99l111 99h46z" />
    <glyph glyph-name="Euro" unicode="&#x20ac;" horiz-adv-x="587" 
d="M551 179q-17 -43 -38.5 -78.5t-50.5 -60.5t-66.5 -38.5t-85.5 -13.5q-60 0 -108.5 25t-82 71.5t-52 113.5t-18.5 151v22q0 84 18 150.5t52 113.5t83 72t110 25q92 0 147 -45t87 -133l-72 -38q-26 72 -63 108.5t-97 36.5q-72 0 -114 -55.5t-53 -148.5h220v-51h-224
q-1 -9 -1.5 -18t-0.5 -19v-19q0 -25 3 -46h223v-51h-219q13 -87 55.5 -140.5t114.5 -53.5q60 0 99.5 39.5t65.5 114.5l68 -34v0z" />
    <glyph glyph-name="Eth" unicode="&#xd0;" horiz-adv-x="662" 
d="M614 352q0 -169 -81.5 -260.5t-229.5 -91.5h-189v339h-88v73h88v308h193q148 0 227.5 -91.5t79.5 -259.5v-17v0zM518 374q0 135 -55 204.5t-162 69.5h-98v-236h132v-73h-132v-267h101q102 0 158 69.5t56 203.5v29z" />
    </font>
</defs>
</svg>
