<?xml version="1.0" encoding="UTF-8"?>
<svg width="137px" height="24px" viewBox="0 0 137 24" version="1.1" xmlns="http://www.w3.org/2000/svg" xmlns:xlink="http://www.w3.org/1999/xlink">
    <!-- Generator: Sketch 61.1 (89650) - https://sketch.com -->
    <title>Group 14</title>
    <desc>Created with Sketch.</desc>
    <g id="Finalized" stroke="none" stroke-width="1" fill="none" fill-rule="evenodd">
        <g id="Artboard" transform="translate(-165.000000, -188.000000)" fill="#10395F">
            <g id="Group-14" transform="translate(165.000000, 188.000000)">
                <g id="Group-8" transform="translate(0.000000, 0.034634)">
                    <polygon id="Fill-1" points="7.71364166 0.265693885 0 7.97933554 0 15.6929742 7.71234835 23.4053223 7.71364166 23.4053223 7.71364166 7.97933554 15.5656005 7.97933554 15.5656005 0.265693885"></polygon>
                    <polygon id="Fill-3" points="20.3133634 8.25197004 29.6118722 8.25197004 29.6118722 10.0927968 25.9315089 10.0927968 25.9315089 21.8112736 23.9937266 21.8112736 23.9937266 10.0927968 20.3133634 10.0927968"></polygon>
                    <polygon id="Fill-4" points="36.0189795 21.8115319 37.9554692 21.8115319 37.9554692 8.2522287 36.0189795 8.2522287"></polygon>
                    <polygon id="Fill-5" points="44.3637132 8.25197004 53.6609287 8.25197004 53.6609287 10.0927968 49.9818617 10.0927968 49.9818617 21.8112736 48.0440704 21.8112736 48.0440704 10.0927968 44.3637132 10.0927968"></polygon>
                    <path d="M61.4637661,16.4842465 L65.6483008,16.4842465 L63.5553733,11.4478224 L61.4637661,16.4842465 Z M66.4032466,18.323783 L60.6894357,18.323783 L59.2752063,21.8115319 L57.2611372,21.8115319 L62.8779955,8.2522281 L64.2340714,8.2522281 L69.8508996,21.8115319 L67.8368605,21.8115319 L66.4032466,18.323783 Z" id="Fill-6"></path>
                    <polygon id="Fill-7" points="78.0021482 11.8549002 78.0021482 21.8114026 76.0643569 21.8114026 76.0643569 8.25209907 77.4204027 8.25209907 85.5567678 18.2073078 85.5567678 8.25209907 87.4932689 8.25209907 87.4932689 21.8114026 86.137193 21.8114026"></polygon>
                </g>
                <g id="Group-13" transform="translate(95.122156, 8.136521)">
                    <path d="M5.11304093,11.8690755 C6.33336516,11.8690755 6.91379035,11.5988986 7.34036971,11.1710079 C7.72688974,10.7650944 7.97897846,10.2040567 7.97897846,9.58355119 C7.97897846,8.96434197 7.72688974,8.42139851 7.34036971,8.01548796 C6.91379035,7.5875973 6.33336516,7.31742037 5.11304093,7.31742037 L2.16821502,7.31742037 L2.16821502,11.8690755 L5.11304093,11.8690755 Z M4.4925264,5.4765906 C5.57709901,5.4765906 6.04247741,5.26329192 6.35274968,4.91555293 C6.64360742,4.60530166 6.81683777,4.19680152 6.81683777,3.73271642 C6.81683777,3.26863133 6.64360742,2.86142448 6.35274968,2.55117322 C6.04247741,2.20214092 5.57709901,1.99013554 4.4925264,1.99013554 L2.16821502,1.99013554 L2.16821502,5.4765906 L4.4925264,5.4765906 Z M0.23042367,13.7099035 L0.23042367,0.150599077 L4.84156769,0.150599077 C6.15884451,0.150599077 6.99135842,0.51773159 7.63122746,1.09815978 C8.32801976,1.73805583 8.75330881,2.66751932 8.75330881,3.67583817 C8.75330881,4.60530166 8.32801976,5.49598112 7.68812071,6.09580283 C8.9666285,6.73569887 9.91676981,8.13053776 9.91676981,9.66111626 C9.91676981,10.9202215 9.33505431,12.0629837 8.42497234,12.7998311 C7.72688974,13.3802608 6.83622229,13.7099035 5.46076192,13.7099035 L0.23042367,13.7099035 Z" id="Fill-9"></path>
                    <path d="M19.0747529,8.38235941 L23.2592875,8.38235941 L21.1663601,3.34593533 L19.0747529,8.38235941 Z M24.0142334,10.2218959 L18.3004225,10.2218959 L16.8861931,13.7096448 L14.872124,13.7096448 L20.4889823,0.150341017 L21.8450581,0.150341017 L27.4619164,13.7096448 L25.4478473,13.7096448 L24.0142334,10.2218959 Z" id="Fill-11"></path>
                    <polygon id="Fill-12" points="37.1626959 7.5111995 37.1626959 13.7097742 35.2262249 13.7097742 35.2262249 7.5111995 30.5776021 0.150470047 32.7467774 0.150470047 36.1944604 5.59280767 39.6421434 0.150470047 41.8113187 0.150470047"></polygon>
                </g>
            </g>
        </g>
    </g>
</svg>